<svg width="909" height="789" viewBox="0 0 909 789" fill="none" xmlns="http://www.w3.org/2000/svg">
<path d="M488.798 728.053V701.54C488.798 685.08 473.46 671.76 454.497 671.76C435.533 671.76 420.196 685.08 420.196 701.54V728.053C234.391 713.776 86.0746 584.745 70.131 423.343H99.6929C118.648 423.343 133.986 410.03 133.986 393.57C133.986 377.11 118.648 363.798 99.6929 363.798H70.29C87.1924 203.262 235.105 75.1742 420.196 60.9391V85.6007C420.196 102.06 435.533 115.373 454.497 115.373C473.46 115.373 488.798 102.06 488.798 85.6007V60.9391C673.897 75.1742 821.808 203.262 838.703 363.798H809.309C790.345 363.798 775.008 377.11 775.008 393.57C775.008 410.03 790.345 423.343 809.309 423.343H838.873C822.927 584.745 674.611 713.776 488.798 728.053ZM454.497 -2.84673e-05C203.464 -2.84673e-05 0 176.601 0 394.5C0 612.391 203.464 789 454.497 789C705.53 789 909 612.391 909 394.5C909 176.601 705.53 -2.84673e-05 454.497 -2.84673e-05Z" fill="black"/>
<path d="M658.834 202.312L455.655 387.108L454.496 387.059C451.957 387.059 449.475 387.284 447.066 387.692L277.021 276.163C265.763 268.834 249.622 270.7 241.049 280.584C232.475 290.356 234.682 304.422 246.077 311.863L416.074 423.35C417.713 440.528 434.283 454.052 454.496 454.052C475.803 454.052 493.087 439.043 493.087 420.556C493.087 419.668 493.014 418.802 492.933 417.937L696.079 233.134C705.869 224.172 705.528 210.098 695.219 201.552C684.967 193.005 668.681 193.413 658.834 202.312Z" fill="black"/>
</svg>
