<svg width="909" height="789" viewBox="0 0 909 789" fill="none" xmlns="http://www.w3.org/2000/svg">
<path d="M909 536.317C909 640.65 824.073 731.744 783.377 769.4C771.662 780.242 752.596 780.242 740.881 769.4C700.191 731.744 615.265 640.65 615.265 536.317C615.265 461.743 681.012 401.293 762.126 401.293C843.252 401.293 909 461.743 909 536.317Z" fill="#040606"/>
<path d="M841.049 536.317C841.049 576.388 805.712 608.873 762.126 608.873C718.54 608.873 683.208 576.388 683.208 536.317C683.208 496.248 718.54 463.766 762.126 463.766C805.712 463.766 841.049 496.248 841.049 536.317Z" fill="white"/>
<path d="M293.739 135.024C293.739 239.351 208.811 330.448 168.119 368.105C156.402 378.948 137.337 378.948 125.62 368.105C84.9285 330.448 0 239.351 0 135.024C0 60.4485 65.7521 4.34176e-05 146.869 4.34176e-05C227.987 4.34176e-05 293.739 60.4485 293.739 135.024Z" fill="#040606"/>
<path d="M225.789 135.023C225.789 175.095 190.455 207.577 146.869 207.577C103.284 207.577 67.9502 175.095 67.9502 135.023C67.9502 94.952 103.284 62.4702 146.869 62.4702C190.455 62.4702 225.789 94.952 225.789 135.023Z" fill="white"/>
<path d="M434.813 789C421.474 788.91 410.738 778.904 410.831 766.636C410.923 754.373 421.818 744.503 435.157 744.588C448.496 744.678 459.232 754.693 459.139 766.952C459.042 779.16 448.25 789 434.985 789C434.929 789 434.874 789 434.813 789Z" fill="#040606"/>
<path d="M489.037 766.862C488.861 754.603 499.537 744.532 512.876 744.375C526.215 744.217 537.17 754.027 537.341 766.295C537.513 778.554 526.837 788.625 513.498 788.782C513.391 788.782 513.289 788.782 513.182 788.782C499.987 788.782 489.204 779.027 489.037 766.862Z" fill="#040606"/>
<path d="M356.289 787.912C342.952 787.652 332.368 777.505 332.645 765.246C332.926 752.982 343.962 743.253 357.299 743.509C370.636 743.765 381.22 753.912 380.943 766.171C380.667 778.277 369.912 787.912 356.803 787.912C356.631 787.912 356.46 787.912 356.289 787.912Z" fill="#040606"/>
<path d="M567.235 765.698C566.86 753.434 577.373 743.219 590.708 742.882C604.038 742.545 615.15 752.206 615.521 764.465C615.887 776.724 605.379 786.935 592.044 787.277C591.817 787.285 591.589 787.285 591.367 787.285C578.334 787.285 567.593 777.743 567.235 765.698Z" fill="#040606"/>
<path d="M276.748 785.289C263.451 784.329 253.513 773.64 254.558 761.411C255.603 749.186 267.228 740.054 280.53 741.018C293.828 741.973 303.761 752.662 302.715 764.887C301.723 776.524 291.148 785.357 278.663 785.357C278.031 785.357 277.389 785.336 276.748 785.289Z" fill="#040606"/>
<path d="M193.898 770.266C181.356 766.094 174.86 753.37 179.397 741.837C183.929 730.303 197.776 724.331 210.322 728.499C222.865 732.666 229.359 745.398 224.823 756.932C221.271 765.971 211.995 771.597 202.11 771.597C199.383 771.597 196.612 771.166 193.898 770.266Z" fill="#040606"/>
<path d="M119.096 727.112C109.755 718.355 109.904 704.296 119.429 695.71C128.955 687.123 144.246 687.26 153.587 696.017C162.928 704.774 162.779 718.833 153.253 727.419C148.55 731.659 142.446 733.771 136.341 733.771C130.083 733.771 123.825 731.544 119.096 727.112Z" fill="#040606"/>
<path d="M76.827 652.607C74.5786 640.519 83.4145 629.041 96.5625 626.976C109.711 624.907 122.196 633.029 124.445 645.121C126.693 657.21 117.853 668.684 104.709 670.753C103.33 670.97 101.96 671.073 100.607 671.073C89.0573 671.073 78.8425 663.429 76.827 652.607Z" fill="#040606"/>
<path d="M100.445 598.368C88.9965 592.084 85.2546 578.448 92.0921 567.921C98.9302 557.389 113.761 553.951 125.214 560.243C136.667 566.526 140.408 580.163 133.567 590.69C129.048 597.651 121.028 601.515 112.808 601.515C108.596 601.515 104.328 600.5 100.445 598.368Z" fill="#040606"/>
<path d="M152.314 545.493C148.766 533.669 156.314 521.444 169.177 518.181H169.173C182.036 514.918 195.334 521.858 198.882 533.677C202.43 545.501 194.881 557.73 182.023 560.994C179.871 561.535 177.71 561.8 175.585 561.795C164.992 561.795 155.269 555.338 152.314 545.493Z" fill="#040606"/>
<path d="M228.762 530.704C226.874 518.565 236.047 507.317 249.257 505.581H249.253C262.458 503.845 274.698 512.278 276.581 524.417C278.47 536.557 269.296 547.809 256.09 549.541C254.931 549.694 253.781 549.767 252.643 549.767C240.817 549.767 230.483 541.778 228.762 530.704Z" fill="#040606"/>
<path d="M306.194 520.531C304.305 508.388 313.479 497.139 326.684 495.408C339.89 493.667 352.125 502.104 354.013 514.244C355.902 526.388 346.723 537.636 333.522 539.368C332.363 539.521 331.212 539.594 330.075 539.594C318.248 539.594 307.915 531.604 306.194 520.531Z" fill="#040606"/>
<path d="M383.894 510.849C379.647 499.221 386.459 486.634 399.106 482.731C411.753 478.828 425.445 485.09 429.69 496.717C433.931 508.341 427.12 520.932 414.477 524.835C411.929 525.62 409.34 525.991 406.791 525.991C396.695 525.991 387.28 520.13 383.894 510.849Z" fill="#040606"/>
<path d="M455.835 481.007C444.579 474.417 441.271 460.691 448.435 450.347C455.603 440.003 470.534 436.962 481.785 443.548C493.036 450.138 496.349 463.86 489.181 474.208C489.181 474.208 489.181 474.208 489.181 474.204C484.578 480.854 476.765 484.488 468.789 484.488C464.349 484.484 459.853 483.362 455.835 481.007Z" fill="#040606"/>
<path d="M453.283 404.011C447.071 393.16 451.613 379.732 463.416 374.021C475.22 368.314 489.826 372.485 496.038 383.341C502.246 394.192 497.709 407.62 485.905 413.332C482.319 415.063 478.472 415.887 474.682 415.887C466.001 415.887 457.607 411.57 453.283 404.011Z" fill="#040606"/>
<path d="M404.636 381.119H404.64C391.523 378.879 382.862 367.294 385.295 355.232C387.728 343.177 400.332 335.214 413.452 337.453C426.568 339.688 435.226 351.277 432.795 363.336C430.633 374.021 420.486 381.494 409.072 381.494C407.609 381.494 406.125 381.37 404.636 381.119Z" fill="#040606"/>
<path d="M331.001 376.256C317.664 376.205 306.896 366.219 306.953 353.952C307.015 341.693 317.875 331.793 331.212 331.844C344.554 331.899 355.322 341.885 355.26 354.148C355.203 366.382 344.4 376.26 331.111 376.256C331.076 376.256 331.036 376.256 331.001 376.256Z" fill="#040606"/>
<path d="M252.793 377.032C239.455 376.981 228.687 366.996 228.744 354.728C228.806 342.469 239.666 332.569 253.004 332.62C266.345 332.676 277.113 342.661 277.052 354.924C276.995 367.158 266.191 377.037 252.902 377.032C252.867 377.032 252.828 377.032 252.793 377.032Z" fill="#040606"/>
<path d="M669.55 784.841C656.215 784.79 645.446 774.804 645.502 762.541C645.567 750.278 656.424 740.378 669.763 740.429C683.102 740.489 693.871 750.47 693.811 762.733C693.755 774.967 682.949 784.845 669.661 784.841C669.629 784.841 669.587 784.841 669.55 784.841Z" fill="#040606"/>
</svg>
