<svg version="1.1" id="Layer_1" xmlns="http://www.w3.org/2000/svg" xmlns:xlink="http://www.w3.org/1999/xlink" x="0px" y="0px"
	 width="100%" viewBox="0 0 1080 420" enable-background="new 0 0 1080 420" xml:space="preserve">
<path fill="#FFFEFE" opacity="1.000000" stroke="none" 
	d="
M836.000000,421.000000 
	C557.333313,421.000000 279.166656,421.000000 1.000000,421.000000 
	C1.000000,281.000000 1.000000,141.000000 1.000000,1.000000 
	C361.000000,1.000000 721.000000,1.000000 1081.000000,1.000000 
	C1081.000000,141.000000 1081.000000,281.000000 1081.000000,421.000000 
	C999.500000,421.000000 918.000000,421.000000 836.000000,421.000000 
M185.918091,77.624794 
	C172.675690,94.062424 159.433304,110.500061 145.459625,127.845413 
	C149.462479,127.845413 151.918594,127.829346 154.374451,127.848091 
	C167.282593,127.946617 180.190643,128.053940 192.990189,128.824997 
	C190.375443,131.083740 187.350922,133.012100 185.217102,135.658600 
	C176.133102,146.925125 167.313110,158.404495 158.396042,169.805618 
	C155.482162,173.531235 152.566223,177.255249 148.977951,181.840302 
	C162.902954,181.840302 175.654724,181.674652 188.399307,181.905350 
	C195.504791,182.033981 200.805115,179.349716 205.106201,173.790955 
	C216.203522,159.448730 227.479141,145.244537 238.659103,130.966049 
	C239.294800,130.154160 239.711273,129.170624 240.249573,128.232452 
	C224.237579,128.232452 208.624573,128.232452 192.883713,127.493958 
	C196.945389,123.693840 201.476517,120.280205 204.982025,116.022232 
	C216.152786,102.453682 226.942154,88.571167 237.818649,75.746719 
	C239.228043,76.165070 240.634232,76.933319 242.047333,76.946243 
	C253.034286,77.046783 264.032410,76.717941 275.007080,77.098419 
	C282.729767,77.366158 288.391357,74.497314 293.017975,68.497009 
	C303.681091,54.667847 314.541107,40.990559 325.292145,27.228899 
	C326.127960,26.158995 326.736450,24.911512 327.909393,22.998215 
	C315.103394,22.998215 303.309814,23.429485 291.564850,22.859425 
	C282.449554,22.417000 276.165771,25.843578 270.762177,32.984051 
	C260.132751,47.030045 248.952179,60.658993 237.105270,74.159264 
	C222.151611,74.149185 207.197968,74.139107 192.843872,73.640175 
	C197.074020,68.741219 201.467926,63.972885 205.501297,58.916950 
	C214.792526,47.270226 223.908539,35.483730 233.687836,22.997852 
	C223.840851,22.997852 214.931442,22.956562 206.022522,23.006104 
	C184.842392,23.123882 185.483414,20.473801 170.214188,40.321014 
	C160.929993,52.388809 151.477371,64.327026 141.585068,76.982735 
	C157.018860,76.982735 171.593582,76.982735 185.918091,77.624794 
M438.518829,85.999130 
	C425.028290,85.158424 412.974213,88.321587 404.007874,99.127838 
	C399.548676,104.502121 395.591614,110.294411 391.434998,115.918007 
	C387.717682,120.947372 384.038239,126.004745 379.652924,131.990448 
	C454.144257,131.990448 527.438049,131.990448 601.357422,131.990448 
	C596.348694,142.059036 591.507263,151.325317 587.145325,160.812103 
	C585.614441,164.141617 583.659851,164.915405 580.278015,164.902557 
	C550.280518,164.788513 520.282471,164.847946 490.284546,164.837326 
	C481.291809,164.834137 474.440948,168.704910 470.373291,176.649307 
	C466.175537,184.847794 466.534943,193.070419 472.156738,200.647476 
	C498.254028,235.821228 524.364075,270.985657 550.613159,306.045959 
	C551.755493,307.571716 554.309204,308.878448 556.207214,308.880798 
	C663.699585,309.014282 771.192017,309.029388 878.684448,308.950287 
	C889.885681,308.942047 899.597351,304.865112 906.689636,295.937408 
	C914.767822,285.768585 922.528076,275.347046 930.404175,265.018341 
	C930.661743,264.680634 930.675110,264.156708 930.965454,263.158936 
	C929.086487,263.158936 927.496521,263.158905 925.906494,263.158905 
	C913.074036,263.158905 900.241638,263.158905 887.409180,263.158905 
	C792.415833,263.158905 697.422485,263.140747 602.429199,263.231110 
	C598.940430,263.234436 596.743835,262.333893 594.594482,259.411072 
	C582.558533,243.043930 570.251221,226.876328 558.059448,210.623413 
	C557.347717,209.674637 556.836182,208.575745 556.006958,207.164673 
	C574.552551,207.164673 592.388916,206.885910 610.211304,207.263412 
	C621.944275,207.511932 629.691467,202.380905 635.039185,192.260605 
	C650.889954,162.264099 666.942444,132.374237 682.905640,102.437096 
	C685.693787,97.208260 688.431213,91.952370 691.565857,85.999130 
	C607.016052,85.999130 523.264526,85.999130 438.518829,85.999130 
M725.937744,113.391357 
	C700.569641,159.442535 675.201477,205.493698 649.581970,252.001312 
	C670.045288,252.001312 689.699768,251.865662 709.349365,252.116440 
	C713.253357,252.166260 715.167053,250.916260 716.921509,247.567261 
	C736.264465,210.644012 755.792542,173.817764 775.154114,136.904175 
	C776.724854,133.909363 778.447510,132.737579 781.958923,132.745529 
	C838.778503,132.874374 895.598328,132.812393 952.418152,132.858749 
	C962.795105,132.867218 972.099243,129.747513 978.630920,121.742561 
	C987.826172,110.473305 996.133362,98.479477 1005.412659,85.998680 
	C1002.470520,85.998680 1000.693848,85.998688 998.917175,85.998688 
	C922.935242,85.998688 846.953186,86.094040 770.971558,85.935577 
	C750.465759,85.892815 735.541565,94.424568 725.937744,113.391357 
M355.500305,151.484329 
	C332.167297,151.484329 308.833527,151.399994 285.502594,151.620102 
	C283.270142,151.641159 280.366028,152.986725 278.946045,154.693039 
	C270.533051,164.802338 262.458405,175.193527 254.300629,185.514175 
	C253.765366,186.191345 253.484695,187.069763 252.787262,188.441193 
	C280.461761,188.441193 307.500183,188.441193 335.183899,188.441193 
	C305.767853,228.816986 276.774261,268.612946 247.347000,309.004150 
	C270.645325,309.004150 292.810669,308.917511 314.973877,309.098419 
	C318.266052,309.125305 320.024170,307.961273 321.793335,305.400513 
	C347.424438,268.301270 373.186340,231.292343 398.781586,194.168488 
	C400.740631,191.327042 402.807068,190.398087 406.126038,190.445496 
	C418.456604,190.621582 430.791260,190.515671 443.124359,190.515671 
	C444.901611,190.515671 446.678894,190.515686 448.634094,190.515686 
	C448.530029,172.502884 457.376678,160.545319 473.148712,151.484375 
	C433.303162,151.484375 394.901764,151.484375 355.500305,151.484329 
M136.841293,139.344513 
	C139.624084,135.732834 142.406860,132.121155 145.714432,127.828384 
	C132.251251,127.828384 119.777145,128.225708 107.343719,127.686028 
	C99.310188,127.337303 93.745888,130.244583 89.039268,136.509476 
	C80.639946,147.689636 71.824982,158.557190 63.207260,169.573792 
	C60.194099,173.425720 57.250046,177.331726 53.793636,181.840179 
	C67.088539,181.840179 79.395706,181.515335 91.675682,181.953079 
	C100.017807,182.250473 105.948685,179.064087 110.857597,172.562668 
	C119.184196,161.534790 127.853516,150.765701 136.841293,139.344513 
M299.513123,76.998413 
	C298.014160,76.998413 296.492981,77.165985 295.019867,76.970871 
	C286.281830,75.813469 280.210724,79.531784 275.113800,86.501122 
	C267.257385,97.243645 258.780273,107.531868 250.581039,118.024193 
	C247.368179,122.135582 244.194656,126.277702 240.542694,131.001556 
	C253.802078,131.001556 266.113708,130.622940 278.388458,131.132690 
	C286.779053,131.481140 292.635376,128.241150 297.565857,121.798447 
	C308.085510,108.052246 318.883667,94.519333 329.546356,80.882286 
	C330.396637,79.794769 331.081665,78.578049 332.122101,76.998413 
	C321.127869,76.998413 310.818176,76.998413 299.513123,76.998413 
M342.585785,77.002045 
	C352.248535,77.002037 361.913483,76.875847 371.573273,77.044891 
	C378.395081,77.164276 383.893860,74.713379 388.183716,69.506134 
	C391.146820,65.909378 394.019440,62.237179 396.894623,58.569019 
	C405.984253,46.972435 415.056061,35.361881 424.728333,22.997950 
	C412.026062,22.997950 400.267242,23.303074 388.532562,22.901434 
	C379.139984,22.579956 372.243683,26.411064 366.665527,33.562332 
	C356.222656,46.950241 345.688782,60.267170 335.214935,73.630997 
	C334.471893,74.579056 333.910126,75.669235 333.069366,77.002045 
	C336.292328,77.002045 338.955872,77.002045 342.585785,77.002045 
M843.201904,33.149391 
	C842.570740,33.610764 841.557617,33.949951 841.365112,34.551651 
	C837.981201,45.128139 834.697388,55.736664 831.227905,66.864326 
	C839.704102,66.864326 847.654968,66.864464 855.605835,66.864288 
	C863.161926,66.864113 863.175720,66.850929 863.982483,58.437393 
	C856.529358,58.437393 849.116882,58.437393 841.704468,58.437393 
	C841.482727,57.881790 841.260986,57.326183 841.039307,56.770580 
	C842.497925,55.895065 843.925659,54.331074 845.420654,54.263844 
	C851.718811,53.980618 858.036926,54.144047 864.570129,54.144047 
	C865.435059,51.443703 866.226562,48.972725 867.210449,45.901024 
	C859.641724,45.901024 852.591370,45.901024 845.566956,45.901024 
	C845.364685,42.372375 846.857666,41.410435 849.775696,41.524029 
	C854.430359,41.705219 859.097351,41.571728 863.759094,41.571819 
	C871.156738,41.571968 871.325562,41.405766 872.016235,33.139767 
	C862.690491,33.139767 853.388611,33.139767 843.201904,33.149391 
M979.391357,38.017784 
	C979.810364,36.503326 980.229431,34.988865 980.704773,33.270638 
	C970.230896,33.270638 960.271362,33.270638 949.914734,33.270638 
	C946.461731,44.309364 943.011963,55.337788 939.405884,66.865814 
	C947.788940,66.865814 955.431824,66.865784 963.074768,66.865822 
	C970.627380,66.865860 970.627380,66.865891 972.590637,58.473839 
	C964.931152,58.473839 957.406006,58.473839 949.544861,58.473839 
	C949.989136,56.791508 950.178284,55.053669 950.493958,55.030388 
	C957.872681,54.486160 965.265076,54.127392 972.914795,53.720650 
	C973.646301,51.365074 974.410339,48.904945 975.336609,45.922356 
	C967.703735,45.922356 960.751709,45.922356 953.863953,45.922356 
	C953.435974,42.483620 954.849426,41.444595 957.847900,41.528835 
	C963.503235,41.687698 969.176819,41.764095 974.818726,41.446789 
	C976.303345,41.363297 977.699829,39.712177 979.391357,38.017784 
M992.832581,51.781631 
	C994.067139,54.502991 995.298157,57.225952 996.536865,59.945423 
	C1000.057800,67.675491 1000.059021,67.674919 1008.911438,66.343758 
	C1007.518982,63.016678 1006.149963,59.745636 1004.746094,56.391426 
	C1013.372314,54.929096 1019.114929,48.135651 1019.042969,40.043968 
	C1019.003418,35.600430 1016.950378,33.165066 1012.401978,33.149349 
	C1004.415527,33.121746 996.426208,33.034637 988.445251,33.244507 
	C987.240356,33.276192 985.366760,34.539211 985.000000,35.633865 
	C981.579346,45.843845 978.420410,56.141514 975.210938,66.333626 
	C980.567322,68.200409 983.026550,66.311142 984.164185,61.118546 
	C985.367493,55.625988 987.310425,50.280537 989.185303,44.960720 
	C989.644348,43.658188 991.053589,41.793182 992.100952,41.742653 
	C998.369080,41.440285 1004.659241,41.592834 1011.067566,41.592834 
	C1011.423706,45.907940 1010.237305,48.059940 1005.909119,47.871780 
	C1001.150085,47.664894 996.375061,47.824623 991.161133,47.824623 
	C991.754150,49.296490 992.117065,50.197231 992.832581,51.781631 
M592.000122,61.600826 
	C593.474060,68.520241 598.639832,66.861320 603.666199,66.657112 
	C602.202881,63.064800 600.864746,59.779858 599.494690,56.416546 
	C607.915710,54.859379 613.617188,48.333336 613.811279,40.399685 
	C613.909424,36.387691 612.331604,33.330894 607.952637,33.235291 
	C598.810059,33.035694 589.660034,33.174862 580.344482,33.174862 
	C576.829346,44.386135 573.406860,55.301895 569.868713,66.586342 
	C572.446167,66.586342 574.550049,66.586342 576.987244,66.586342 
	C579.230530,59.519268 581.388489,52.367641 583.832703,45.315228 
	C584.329712,43.881241 585.849060,41.818760 586.992371,41.755035 
	C593.261780,41.405632 599.560852,41.588406 605.897278,41.588406 
	C606.149475,46.114796 604.677917,48.093529 600.450256,47.891022 
	C595.752625,47.665997 591.035889,47.839508 585.745239,47.839508 
	C587.987183,52.766960 589.838440,56.835789 592.000122,61.600826 
M763.479187,41.567898 
	C765.310974,41.567932 767.142700,41.568378 768.974487,41.567917 
	C775.824402,41.566196 776.329834,41.045776 776.814026,33.198753 
	C769.495422,33.198753 762.179016,32.937805 754.892029,33.289135 
	C749.910889,33.529293 745.831116,36.356586 743.901062,40.875874 
	C741.499634,46.498974 739.556702,52.398808 738.186096,58.356354 
	C737.029907,63.381912 740.169800,66.693871 745.383423,66.804085 
	C751.542114,66.934273 757.706665,66.900787 763.865967,66.787849 
	C765.031616,66.766472 766.963196,66.320366 767.221069,65.598572 
	C769.470886,59.300728 771.419983,52.895481 773.628357,45.990810 
	C769.786682,45.990810 766.969604,45.990696 764.152527,45.990833 
	C756.769226,45.991196 756.769226,45.991241 755.398132,53.898975 
	C758.012573,54.060810 760.608215,54.221485 763.246216,54.384777 
	C762.285461,58.770824 756.025024,59.927353 745.648132,57.731785 
	C745.957031,56.334843 746.155029,54.897011 746.594116,53.537003 
	C751.291016,38.987984 748.084595,41.913292 763.479187,41.567898 
M613.823853,57.210495 
	C612.896118,60.272442 611.968445,63.334385 611.055664,66.347031 
	C616.281250,67.962135 618.621094,66.280426 619.742493,61.563255 
	C621.084229,55.919884 623.040161,50.413406 624.930725,44.916649 
	C625.353943,43.686184 626.571594,41.851517 627.490784,41.810734 
	C633.703552,41.535065 639.934509,41.666897 646.096619,41.666897 
	C646.467957,46.612801 644.819153,48.643345 640.382568,48.072540 
	C638.417725,47.819748 636.393372,48.030045 634.395996,48.030048 
	C627.087280,48.030071 627.087280,48.030064 625.267334,56.303955 
	C630.886658,56.303955 636.378540,56.303955 642.264893,56.303955 
	C641.177063,60.144180 640.291016,63.271938 639.018921,67.762466 
	C642.265991,66.664024 646.050354,66.454285 646.588501,65.023460 
	C649.505554,57.268562 651.990234,49.298458 653.880005,41.228317 
	C655.118591,35.938889 652.268860,33.256020 646.619995,33.172020 
	C641.960449,33.102730 637.299072,33.144749 632.638611,33.159275 
	C625.298828,33.182152 620.775391,36.214523 618.263672,43.133404 
	C616.677429,47.503242 615.436157,51.998344 613.823853,57.210495 
M660.338501,346.025757 
	C662.411438,341.803497 665.235779,337.769379 666.353027,333.307831 
	C667.548950,328.531647 664.607300,325.315948 659.991211,325.216919 
	C651.524414,325.035339 643.050903,325.165161 634.284607,325.165161 
	C631.394043,336.436493 628.569214,347.451782 625.682312,358.708801 
	C628.316101,358.708801 630.400208,358.708801 632.584290,358.708801 
	C634.449646,351.402649 636.170105,344.312225 638.131531,337.289124 
	C638.508240,335.940125 639.779236,333.859924 640.726135,333.810486 
	C646.796448,333.493378 652.891418,333.648682 658.993896,333.648682 
	C659.457153,338.371490 657.888794,340.170990 653.666687,339.912262 
	C649.411682,339.651550 645.128174,339.854858 640.007751,339.854858 
	C642.178833,344.397034 644.036865,348.236603 645.853699,352.095612 
	C649.331726,359.483154 649.322021,359.487701 658.013489,358.645416 
	C656.510498,355.269226 655.051270,351.991394 653.602600,348.737305 
	C655.853333,347.933319 657.814819,347.232605 660.338501,346.025757 
M594.863647,352.445923 
	C596.189331,347.301178 597.388672,342.118134 598.927979,337.038116 
	C599.320862,335.741455 600.740784,333.858765 601.774109,333.802155 
	C607.525513,333.486877 613.303162,333.650787 619.097290,333.650787 
	C618.613281,340.118256 618.613281,340.122284 613.154175,340.131866 
	C609.222717,340.138763 605.291260,340.133179 601.415527,340.133179 
	C600.651001,343.102203 600.043396,345.461884 599.247864,348.551208 
	C604.923584,348.551208 610.118530,348.551208 615.604980,348.551208 
	C614.853088,352.380035 614.235779,355.523651 613.618408,358.667267 
	C613.955017,359.049622 614.291626,359.431976 614.628296,359.814331 
	C616.683044,358.782471 620.075195,358.178650 620.565796,356.646057 
	C622.938965,349.231873 624.774719,341.617157 626.322510,333.976593 
	C627.471680,328.303558 624.580139,325.275635 618.621704,325.166748 
	C614.297302,325.087708 609.962646,325.313080 605.646179,325.111023 
	C599.227417,324.810547 594.917786,327.925262 593.058411,333.649078 
	C590.413940,341.789734 588.509216,350.170685 586.300293,358.404755 
	C591.826111,360.354492 594.132019,358.104126 594.863647,352.445923 
M925.961609,342.346527 
	C926.906433,339.880188 928.228577,337.486847 928.722473,334.933289 
	C929.995850,328.350830 927.261047,325.215637 920.528198,325.164948 
	C913.707092,325.113586 906.880554,325.019989 900.067932,325.265259 
	C898.701599,325.314453 896.499390,326.555878 896.187195,327.669434 
	C893.327759,337.869751 890.800537,348.163239 888.096924,358.740387 
	C890.521484,358.740387 892.624512,358.740387 894.922791,358.740387 
	C897.126709,350.358154 899.306885,342.066010 901.427429,334.000854 
	C908.490723,334.000854 915.059326,334.000854 921.651794,334.000854 
	C921.865601,338.657013 919.923096,340.266266 915.633118,339.925201 
	C911.515808,339.597839 907.352173,339.854462 902.524109,339.854462 
	C904.629822,344.373535 906.478271,348.397705 908.375244,352.398895 
	C911.752075,359.521515 911.764343,359.515717 920.459045,358.587372 
	C918.897644,355.177612 917.409851,351.928772 916.407410,349.739685 
	C919.739685,347.268158 922.642090,345.115417 925.961609,342.346527 
M501.902649,61.328201 
	C504.258209,54.802185 507.077576,48.396801 508.816650,41.710449 
	C510.113892,36.722927 506.905884,33.373772 501.687134,33.183514 
	C496.863464,33.007652 492.027893,33.187252 487.198639,33.127350 
	C480.585388,33.045319 475.948608,36.365650 473.438812,42.096802 
	C471.251312,47.091957 469.743774,52.434185 468.417725,57.743420 
	C467.091736,63.052383 470.313568,66.724106 475.967926,66.845467 
	C480.296295,66.938370 484.637970,66.682472 488.956055,66.912872 
	C493.974915,67.180664 498.091492,65.604980 501.902649,61.328201 
M880.950256,325.160431 
	C876.632507,325.158997 872.313660,325.219666 867.997253,325.141144 
	C861.974182,325.031647 857.489685,327.936005 855.409180,333.204071 
	C853.239807,338.696838 851.830566,344.600861 850.937317,350.454529 
	C850.088928,356.014069 853.005005,358.804657 858.654480,358.958771 
	C862.803101,359.071991 866.957458,359.017731 871.108765,358.981140 
	C878.457947,358.916382 882.879639,355.746429 885.090149,348.660919 
	C886.420593,344.396454 887.514893,340.047272 888.491760,335.686127 
	C889.820740,329.752991 887.875183,326.826263 880.950256,325.160431 
M810.988281,352.167694 
	C811.550781,357.018677 814.470337,359.025757 819.142883,358.990936 
	C823.460938,358.958771 827.781189,358.906494 832.097229,359.005280 
	C837.968323,359.139618 842.247375,356.228271 844.268494,351.166168 
	C846.460022,345.677307 847.891785,339.791229 848.890503,333.947723 
	C849.806091,328.591064 846.739258,325.417511 841.276062,325.203400 
	C836.798523,325.027924 832.308777,325.149841 827.824524,325.163483 
	C821.577026,325.182526 817.229675,328.487610 815.253540,334.014008 
	C813.262024,339.583344 812.360352,345.542419 810.988281,352.167694 
M512.076721,47.491829 
	C510.116425,53.788784 508.156097,60.085739 506.219666,66.306107 
	C511.679504,68.253296 514.392456,66.208885 515.018311,61.013626 
	C515.506897,56.957966 517.585327,55.513889 521.733459,55.924637 
	C526.013123,56.348408 530.367432,56.027382 534.689087,56.016132 
	C543.213440,55.993946 550.305115,48.538166 549.962097,39.909523 
	C549.789795,35.575829 547.702942,33.104485 543.127563,33.143047 
	C539.138672,33.176670 535.148071,33.087173 531.160339,33.162632 
	C526.377808,33.253139 520.470337,31.818293 517.146729,34.099209 
	C514.080261,36.203568 513.787781,42.350063 512.076721,47.491829 
M788.404053,358.990295 
	C794.934021,359.557922 801.309814,358.649109 804.054138,352.004456 
	C806.555237,345.948883 807.960876,339.346924 809.098267,332.854187 
	C809.889465,328.337311 806.924561,325.478882 802.437439,325.289795 
	C795.483276,324.996735 788.507690,325.212463 781.389893,325.212463 
	C780.687439,328.049377 780.065491,330.561249 779.247559,333.864319 
	C787.244263,333.864319 794.603699,333.864319 802.576538,333.864319 
	C801.237610,339.135437 800.257324,343.667297 798.850586,348.062622 
	C798.496216,349.169983 796.821716,350.515656 795.676514,350.592041 
	C791.259521,350.886688 786.811218,350.711609 781.878357,350.711609 
	C782.972168,346.086365 783.937256,342.005432 784.969421,337.640808 
	C782.504456,337.640808 780.550476,337.640808 778.210449,337.640808 
	C776.409729,344.661957 774.630066,351.601166 772.735046,358.990295 
	C778.141235,358.990295 782.786926,358.990295 788.404053,358.990295 
M893.462402,52.890732 
	C890.826233,47.149773 888.398865,41.296177 885.406128,35.747570 
	C884.663513,34.370819 882.144775,33.527260 880.337097,33.308304 
	C879.243347,33.175827 877.216064,34.469601 876.855469,35.541962 
	C873.422607,45.751556 870.256897,56.050968 866.913147,66.645401 
	C869.470703,66.645401 871.594421,66.645401 874.009033,66.645401 
	C876.210693,59.908436 878.428650,53.121445 881.000000,45.253109 
	C883.843628,51.487633 886.444946,56.351807 888.293335,61.487015 
	C890.029846,66.311333 892.770386,68.118408 898.025879,66.315704 
	C901.374146,55.604866 904.806946,44.623329 908.232422,33.665314 
	C902.620239,31.872061 900.535400,34.109364 899.298096,38.790020 
	C897.974243,43.798016 895.773682,48.574272 893.462402,52.890732 
M738.540344,41.157383 
	C739.277405,38.652462 740.014465,36.147545 740.747070,33.657810 
	C735.627686,31.979630 733.140808,33.680473 732.003906,38.640129 
	C730.843079,43.704678 728.934631,48.597870 726.969238,54.773174 
	C723.638794,47.579514 721.085693,41.623688 718.081604,35.904797 
	C717.382080,34.573109 715.225098,33.566391 713.595886,33.306808 
	C712.350525,33.108406 709.966797,34.016838 709.649475,34.958580 
	C706.158386,45.318882 702.973389,55.782299 699.583313,66.607422 
	C702.310364,66.607422 704.413940,66.607422 706.675293,66.607422 
	C708.883362,59.715157 711.050964,52.949135 713.531555,45.206184 
	C716.549866,51.731747 719.394470,57.345779 721.735046,63.162636 
	C722.949219,66.180115 724.667175,66.925941 727.725891,66.957153 
	C731.258667,66.993210 731.189636,64.417480 731.850159,62.378456 
	C734.054565,55.574711 736.126404,48.728039 738.540344,41.157383 
M749.139587,341.068390 
	C749.496155,340.147247 749.852661,339.226074 750.418823,337.763367 
	C753.561340,344.313934 756.299927,350.530457 759.568970,356.454285 
	C760.320190,357.815613 762.833740,358.547791 764.652283,358.835175 
	C765.593872,358.983978 767.501160,357.717957 767.761169,356.761780 
	C770.569763,346.435730 773.137268,336.044098 775.851624,325.351379 
	C773.315796,325.351379 771.368408,325.351379 769.092590,325.351379 
	C767.289246,332.134308 765.497009,338.875610 763.413696,346.711761 
	C759.963928,339.621368 757.200684,333.427063 753.894409,327.537567 
	C753.143982,326.200928 750.557800,325.553101 748.722656,325.316406 
	C747.850464,325.203888 746.140564,326.633270 745.860168,327.652954 
	C743.049988,337.870667 740.458313,348.148499 737.719421,358.741028 
	C740.224060,358.741028 742.312439,358.741028 744.597290,358.741028 
	C746.085571,353.017212 747.540161,347.423187 749.139587,341.068390 
M799.065430,52.470684 
	C798.717285,53.578987 798.313354,54.673229 798.029907,55.797844 
	C796.130127,63.336403 798.862549,66.833878 806.672607,66.867065 
	C811.001709,66.885460 815.330872,66.871117 819.660034,66.871391 
	C827.432922,66.871887 827.432922,66.871841 828.511658,58.276112 
	C820.716248,58.276112 812.981506,58.276112 804.564087,58.276112 
	C806.052307,53.477051 806.997070,49.246460 808.738098,45.373745 
	C809.479797,43.723660 811.789368,41.944332 813.554199,41.750423 
	C818.160706,41.244274 822.859741,41.581112 827.521912,41.581684 
	C835.151001,41.582619 835.151001,41.582581 836.607117,33.132675 
	C830.084106,33.132675 823.616821,33.112804 817.149719,33.137772 
	C809.305237,33.168060 804.435974,36.638866 801.763672,44.119549 
	C800.869812,46.621990 800.093750,49.166546 799.065430,52.470684 
M688.766235,41.559780 
	C690.451965,39.131447 692.137695,36.703114 694.556335,33.218975 
	C685.261902,33.218975 677.675598,32.399830 670.401367,33.551620 
	C666.548279,34.161709 661.977112,37.456253 659.976074,40.859470 
	C656.939697,46.023457 655.423218,52.238602 654.075745,58.191601 
	C652.855530,63.582481 655.901855,66.698204 661.530518,66.814781 
	C666.520203,66.918121 671.513672,66.842415 676.505432,66.842583 
	C683.690735,66.842827 684.402710,66.131004 684.596558,58.258263 
	C677.010620,58.258263 669.430054,58.258263 660.970703,58.258263 
	C662.604919,52.994640 663.743286,48.324497 665.604858,43.963047 
	C666.140808,42.707329 668.732788,41.754684 670.430298,41.673599 
	C676.240784,41.396046 682.072754,41.567688 688.766235,41.559780 
M565.595764,331.167267 
	C566.001282,329.305267 566.406799,327.443268 566.867126,325.329712 
	C564.451111,325.329712 562.499939,325.329712 560.162292,325.329712 
	C557.327698,336.387024 554.506836,347.390778 551.610535,358.688660 
	C555.664124,359.189667 558.862061,359.908539 559.719177,354.651001 
	C560.197632,351.716278 562.112427,349.015686 563.379944,346.209595 
	C565.403015,348.599670 567.758789,350.784790 569.382935,353.420654 
	C573.294739,359.769379 573.405701,359.960602 581.416138,358.212616 
	C578.363342,352.855164 575.367371,347.597382 572.137756,341.929718 
	C577.715393,336.371368 583.157532,330.948059 588.627075,325.497437 
	C583.454956,324.200043 579.299561,325.406067 575.899170,329.604279 
	C573.926208,332.040161 571.553955,334.203217 569.120728,336.195038 
	C567.867798,337.220642 566.088074,337.602753 563.752014,338.622375 
	C564.487549,335.468445 564.901001,333.695404 565.595764,331.167267 
M444.960571,54.316460 
	C443.705841,58.346851 442.451111,62.377243 441.193878,66.415672 
	C446.318604,67.795860 449.098083,66.610954 450.085480,61.394615 
	C450.943329,56.862644 453.071503,52.578732 454.030914,48.056339 
	C455.097076,43.030796 457.326233,40.991234 462.787292,41.445980 
	C469.973389,42.044376 470.515991,41.079769 470.843903,33.124691 
	C462.370636,33.124691 453.906250,33.124722 445.441864,33.124683 
	C437.654327,33.124645 437.459961,33.309525 436.880981,41.665737 
	C440.671234,41.665737 444.443146,41.665737 448.812866,41.665737 
	C447.471527,45.990192 446.301727,49.761631 444.960571,54.316460 
M925.515076,33.125469 
	C921.210938,33.125469 916.906799,33.125469 912.392578,33.125469 
	C911.488159,35.944572 910.659180,38.528309 909.647888,41.680374 
	C914.223083,41.680374 917.999207,41.680374 922.419189,41.680374 
	C919.784241,50.263824 917.305725,58.337971 914.846191,66.349907 
	C919.953857,67.819275 922.559082,66.665184 923.569153,61.684868 
	C924.551636,56.840862 926.884094,52.267883 927.835938,47.421173 
	C928.810547,42.458935 931.321228,41.239765 936.042908,41.487251 
	C943.515991,41.878944 944.169800,40.963245 944.424988,33.125473 
	C938.448914,33.125473 932.478760,33.125473 925.515076,33.125469 
M685.533447,325.141632 
	C681.901367,325.141632 678.269287,325.141632 674.402466,325.141632 
	C673.700256,327.959167 673.077576,330.457672 672.277405,333.668427 
	C676.522400,333.668427 680.227417,333.668427 684.388489,333.668427 
	C682.193420,342.426147 680.169983,350.499359 678.079285,358.840698 
	C680.630493,358.840698 682.585876,358.840698 684.857788,358.840698 
	C687.052734,350.502869 689.230286,342.231293 691.501282,333.604675 
	C695.629211,333.604675 699.560425,333.604675 703.644897,333.604675 
	C704.387634,330.701508 705.034607,328.172638 705.809998,325.141663 
	C699.083191,325.141663 692.802368,325.141663 685.533447,325.141632 
M704.729614,33.602226 
	C702.631775,33.419662 700.533936,33.237103 698.197998,33.033817 
	C694.647766,44.385155 691.219299,55.347054 687.791992,66.305397 
	C693.125122,67.922897 695.325684,66.296387 696.572021,61.549522 
	C698.973328,52.404358 702.071655,43.442207 704.729614,33.602226 
M735.293091,346.941406 
	C737.111023,339.822266 738.928955,332.703125 740.806091,325.352234 
	C738.107483,325.352234 736.160767,325.352234 733.936218,325.352234 
	C731.097290,336.488983 728.290466,347.499512 725.403870,358.823181 
	C728.010925,358.823181 729.961182,358.823181 732.242859,358.823181 
	C733.198120,355.095612 734.140564,351.418304 735.293091,346.941406 
z"/>
<path fill="#EE262D" opacity="1.000000" stroke="none" 
	d="
M439.015930,85.999130 
	C523.264526,85.999130 607.016052,85.999130 691.565857,85.999130 
	C688.431213,91.952370 685.693787,97.208260 682.905640,102.437096 
	C666.942444,132.374237 650.889954,162.264099 635.039185,192.260605 
	C629.691467,202.380905 621.944275,207.511932 610.211304,207.263412 
	C592.388916,206.885910 574.552551,207.164673 556.006958,207.164673 
	C556.836182,208.575745 557.347717,209.674637 558.059448,210.623413 
	C570.251221,226.876328 582.558533,243.043930 594.594482,259.411072 
	C596.743835,262.333893 598.940430,263.234436 602.429199,263.231110 
	C697.422485,263.140747 792.415833,263.158905 887.409180,263.158905 
	C900.241638,263.158905 913.074036,263.158905 925.906494,263.158905 
	C927.496521,263.158905 929.086487,263.158936 930.965454,263.158936 
	C930.675110,264.156708 930.661743,264.680634 930.404175,265.018341 
	C922.528076,275.347046 914.767822,285.768585 906.689636,295.937408 
	C899.597351,304.865112 889.885681,308.942047 878.684448,308.950287 
	C771.192017,309.029388 663.699585,309.014282 556.207214,308.880798 
	C554.309204,308.878448 551.755493,307.571716 550.613159,306.045959 
	C524.364075,270.985657 498.254028,235.821228 472.156738,200.647476 
	C466.534943,193.070419 466.175537,184.847794 470.373291,176.649307 
	C474.440948,168.704910 481.291809,164.834137 490.284546,164.837326 
	C520.282471,164.847946 550.280518,164.788513 580.278015,164.902557 
	C583.659851,164.915405 585.614441,164.141617 587.145325,160.812103 
	C591.507263,151.325317 596.348694,142.059036 601.357422,131.990448 
	C527.438049,131.990448 454.144257,131.990448 379.652924,131.990448 
	C384.038239,126.004745 387.717682,120.947372 391.434998,115.918007 
	C395.591614,110.294411 399.548676,104.502121 404.007874,99.127838 
	C412.974213,88.321587 425.028290,85.158424 439.015930,85.999130 
z"/>
<path fill="#050707" opacity="1.000000" stroke="none" 
	d="
M726.085266,113.052963 
	C735.541565,94.424568 750.465759,85.892815 770.971558,85.935577 
	C846.953186,86.094040 922.935242,85.998688 998.917175,85.998688 
	C1000.693848,85.998688 1002.470520,85.998680 1005.412659,85.998680 
	C996.133362,98.479477 987.826172,110.473305 978.630920,121.742561 
	C972.099243,129.747513 962.795105,132.867218 952.418152,132.858749 
	C895.598328,132.812393 838.778503,132.874374 781.958923,132.745529 
	C778.447510,132.737579 776.724854,133.909363 775.154114,136.904175 
	C755.792542,173.817764 736.264465,210.644012 716.921509,247.567261 
	C715.167053,250.916260 713.253357,252.166260 709.349365,252.116440 
	C689.699768,251.865662 670.045288,252.001312 649.581970,252.001312 
	C675.201477,205.493698 700.569641,159.442535 726.085266,113.052963 
z"/>
<path fill="#070909" opacity="1.000000" stroke="none" 
	d="
M356.000305,151.484344 
	C394.901764,151.484375 433.303162,151.484375 473.148712,151.484375 
	C457.376678,160.545319 448.530029,172.502884 448.634094,190.515686 
	C446.678894,190.515686 444.901611,190.515671 443.124359,190.515671 
	C430.791260,190.515671 418.456604,190.621582 406.126038,190.445496 
	C402.807068,190.398087 400.740631,191.327042 398.781586,194.168488 
	C373.186340,231.292343 347.424438,268.301270 321.793335,305.400513 
	C320.024170,307.961273 318.266052,309.125305 314.973877,309.098419 
	C292.810669,308.917511 270.645325,309.004150 247.347000,309.004150 
	C276.774261,268.612946 305.767853,228.816986 335.183899,188.441193 
	C307.500183,188.441193 280.461761,188.441193 252.787262,188.441193 
	C253.484695,187.069763 253.765366,186.191345 254.300629,185.514175 
	C262.458405,175.193527 270.533051,164.802338 278.946045,154.693039 
	C280.366028,152.986725 283.270142,151.641159 285.502594,151.620102 
	C308.833527,151.399994 332.167297,151.484329 356.000305,151.484344 
z"/>
<path fill="#EE272E" opacity="1.000000" stroke="none" 
	d="
M237.878845,74.809937 
	C226.942154,88.571167 216.152786,102.453682 204.982025,116.022232 
	C201.476517,120.280205 196.945389,123.693840 192.935394,127.804680 
	C192.987076,128.115402 193.098740,128.158203 193.098740,128.158203 
	C180.190643,128.053940 167.282593,127.946617 154.374451,127.848091 
	C151.918594,127.829346 149.462479,127.845413 145.459625,127.845413 
	C159.433304,110.500061 172.675690,94.062424 186.284195,77.072769 
	C188.514969,75.723495 190.379639,74.926254 192.244308,74.129013 
	C207.197968,74.139107 222.151611,74.149185 237.610443,74.427689 
	C238.115631,74.696114 237.878845,74.809937 237.878845,74.809937 
z"/>
<path fill="#070909" opacity="1.000000" stroke="none" 
	d="
M192.999313,128.173920 
	C208.624573,128.232452 224.237579,128.232452 240.249573,128.232452 
	C239.711273,129.170624 239.294800,130.154160 238.659103,130.966049 
	C227.479141,145.244537 216.203522,159.448730 205.106201,173.790955 
	C200.805115,179.349716 195.504791,182.033981 188.399307,181.905350 
	C175.654724,181.674652 162.902954,181.840302 148.977951,181.840302 
	C152.566223,177.255249 155.482162,173.531235 158.396042,169.805618 
	C167.313110,158.404495 176.133102,146.925125 185.217102,135.658600 
	C187.350922,133.012100 190.375443,131.083740 193.044464,128.491608 
	C193.098740,128.158203 192.987076,128.115402 192.999313,128.173920 
z"/>
<path fill="#070909" opacity="1.000000" stroke="none" 
	d="
M136.610046,139.616180 
	C127.853516,150.765701 119.184196,161.534790 110.857597,172.562668 
	C105.948685,179.064087 100.017807,182.250473 91.675682,181.953079 
	C79.395706,181.515335 67.088539,181.840179 53.793636,181.840179 
	C57.250046,177.331726 60.194099,173.425720 63.207260,169.573792 
	C71.824982,158.557190 80.639946,147.689636 89.039268,136.509476 
	C93.745888,130.244583 99.310188,127.337303 107.343719,127.686028 
	C119.777145,128.225708 132.251251,127.828384 145.714432,127.828384 
	C142.406860,132.121155 139.624084,135.732834 136.610046,139.616180 
z"/>
<path fill="#050707" opacity="1.000000" stroke="none" 
	d="
M237.848755,75.278328 
	C237.878845,74.809937 238.115631,74.696114 238.057617,74.578293 
	C248.952179,60.658993 260.132751,47.030045 270.762177,32.984051 
	C276.165771,25.843578 282.449554,22.417000 291.564850,22.859425 
	C303.309814,23.429485 315.103394,22.998215 327.909393,22.998215 
	C326.736450,24.911512 326.127960,26.158995 325.292145,27.228899 
	C314.541107,40.990559 303.681091,54.667847 293.017975,68.497009 
	C288.391357,74.497314 282.729767,77.366158 275.007080,77.098419 
	C264.032410,76.717941 253.034286,77.046783 242.047333,76.946243 
	C240.634232,76.933319 239.228043,76.165070 237.848755,75.278328 
z"/>
<path fill="#EE262D" opacity="1.000000" stroke="none" 
	d="
M300.010803,76.998413 
	C310.818176,76.998413 321.127869,76.998413 332.122101,76.998413 
	C331.081665,78.578049 330.396637,79.794769 329.546356,80.882286 
	C318.883667,94.519333 308.085510,108.052246 297.565857,121.798447 
	C292.635376,128.241150 286.779053,131.481140 278.388458,131.132690 
	C266.113708,130.622940 253.802078,131.001556 240.542694,131.001556 
	C244.194656,126.277702 247.368179,122.135582 250.581039,118.024193 
	C258.780273,107.531868 267.257385,97.243645 275.113800,86.501122 
	C280.210724,79.531784 286.281830,75.813469 295.019867,76.970871 
	C296.492981,77.165985 298.014160,76.998413 300.010803,76.998413 
z"/>
<path fill="#060808" opacity="1.000000" stroke="none" 
	d="
M192.544098,73.884598 
	C190.379639,74.926254 188.514969,75.723495 186.409302,76.751740 
	C171.593582,76.982735 157.018860,76.982735 141.585068,76.982735 
	C151.477371,64.327026 160.929993,52.388809 170.214188,40.321014 
	C185.483414,20.473801 184.842392,23.123882 206.022522,23.006104 
	C214.931442,22.956562 223.840851,22.997852 233.687836,22.997852 
	C223.908539,35.483730 214.792526,47.270226 205.501297,58.916950 
	C201.467926,63.972885 197.074020,68.741219 192.544098,73.884598 
z"/>
<path fill="#060808" opacity="1.000000" stroke="none" 
	d="
M342.102600,77.002045 
	C338.955872,77.002045 336.292328,77.002045 333.069366,77.002045 
	C333.910126,75.669235 334.471893,74.579056 335.214935,73.630997 
	C345.688782,60.267170 356.222656,46.950241 366.665527,33.562332 
	C372.243683,26.411064 379.139984,22.579956 388.532562,22.901434 
	C400.267242,23.303074 412.026062,22.997950 424.728333,22.997950 
	C415.056061,35.361881 405.984253,46.972435 396.894623,58.569019 
	C394.019440,62.237179 391.146820,65.909378 388.183716,69.506134 
	C383.893860,74.713379 378.395081,77.164276 371.573273,77.044891 
	C361.913483,76.875847 352.248535,77.002037 342.102600,77.002045 
z"/>
<path fill="#2E2A2B" opacity="1.000000" stroke="none" 
	d="
M843.644348,33.144577 
	C853.388611,33.139767 862.690491,33.139767 872.016235,33.139767 
	C871.325562,41.405766 871.156738,41.571968 863.759094,41.571819 
	C859.097351,41.571728 854.430359,41.705219 849.775696,41.524029 
	C846.857666,41.410435 845.364685,42.372375 845.566956,45.901024 
	C852.591370,45.901024 859.641724,45.901024 867.210449,45.901024 
	C866.226562,48.972725 865.435059,51.443703 864.570129,54.144047 
	C858.036926,54.144047 851.718811,53.980618 845.420654,54.263844 
	C843.925659,54.331074 842.497925,55.895065 841.039307,56.770580 
	C841.260986,57.326183 841.482727,57.881790 841.704468,58.437393 
	C849.116882,58.437393 856.529358,58.437393 863.982483,58.437393 
	C863.175720,66.850929 863.161926,66.864113 855.605835,66.864288 
	C847.654968,66.864464 839.704102,66.864326 831.227905,66.864326 
	C834.697388,55.736664 837.981201,45.128139 841.365112,34.551651 
	C841.557617,33.949951 842.570740,33.610764 843.644348,33.144577 
z"/>
<path fill="#2E2B2C" opacity="1.000000" stroke="none" 
	d="
M979.264038,38.399361 
	C977.699829,39.712177 976.303345,41.363297 974.818726,41.446789 
	C969.176819,41.764095 963.503235,41.687698 957.847900,41.528835 
	C954.849426,41.444595 953.435974,42.483620 953.863953,45.922356 
	C960.751709,45.922356 967.703735,45.922356 975.336609,45.922356 
	C974.410339,48.904945 973.646301,51.365074 972.914795,53.720650 
	C965.265076,54.127392 957.872681,54.486160 950.493958,55.030388 
	C950.178284,55.053669 949.989136,56.791508 949.544861,58.473839 
	C957.406006,58.473839 964.931152,58.473839 972.590637,58.473839 
	C970.627380,66.865891 970.627380,66.865860 963.074768,66.865822 
	C955.431824,66.865784 947.788940,66.865814 939.405884,66.865814 
	C943.011963,55.337788 946.461731,44.309364 949.914734,33.270638 
	C960.271362,33.270638 970.230896,33.270638 980.704773,33.270638 
	C980.229431,34.988865 979.810364,36.503326 979.264038,38.399361 
z"/>
<path fill="#2F2C2C" opacity="1.000000" stroke="none" 
	d="
M992.656250,51.439804 
	C992.117065,50.197231 991.754150,49.296490 991.161133,47.824623 
	C996.375061,47.824623 1001.150085,47.664894 1005.909119,47.871780 
	C1010.237305,48.059940 1011.423706,45.907940 1011.067566,41.592834 
	C1004.659241,41.592834 998.369080,41.440285 992.100952,41.742653 
	C991.053589,41.793182 989.644348,43.658188 989.185303,44.960720 
	C987.310425,50.280537 985.367493,55.625988 984.164185,61.118546 
	C983.026550,66.311142 980.567322,68.200409 975.210938,66.333626 
	C978.420410,56.141514 981.579346,45.843845 985.000000,35.633865 
	C985.366760,34.539211 987.240356,33.276192 988.445251,33.244507 
	C996.426208,33.034637 1004.415527,33.121746 1012.401978,33.149349 
	C1016.950378,33.165066 1019.003418,35.600430 1019.042969,40.043968 
	C1019.114929,48.135651 1013.372314,54.929096 1004.746094,56.391426 
	C1006.149963,59.745636 1007.518982,63.016678 1008.911438,66.343758 
	C1000.059021,67.674919 1000.057800,67.675491 996.536865,59.945423 
	C995.298157,57.225952 994.067139,54.502991 992.656250,51.439804 
z"/>
<path fill="#EE272F" opacity="1.000000" stroke="none" 
	d="
M591.844910,61.252724 
	C589.838440,56.835789 587.987183,52.766960 585.745239,47.839508 
	C591.035889,47.839508 595.752625,47.665997 600.450256,47.891022 
	C604.677917,48.093529 606.149475,46.114796 605.897278,41.588406 
	C599.560852,41.588406 593.261780,41.405632 586.992371,41.755035 
	C585.849060,41.818760 584.329712,43.881241 583.832703,45.315228 
	C581.388489,52.367641 579.230530,59.519268 576.987244,66.586342 
	C574.550049,66.586342 572.446167,66.586342 569.868713,66.586342 
	C573.406860,55.301895 576.829346,44.386135 580.344482,33.174862 
	C589.660034,33.174862 598.810059,33.035694 607.952637,33.235291 
	C612.331604,33.330894 613.909424,36.387691 613.811279,40.399685 
	C613.617188,48.333336 607.915710,54.859379 599.494690,56.416546 
	C600.864746,59.779858 602.202881,63.064800 603.666199,66.657112 
	C598.639832,66.861320 593.474060,68.520241 591.844910,61.252724 
z"/>
<path fill="#EE262E" opacity="1.000000" stroke="none" 
	d="
M762.990356,41.567760 
	C748.084595,41.913292 751.291016,38.987984 746.594116,53.537003 
	C746.155029,54.897011 745.957031,56.334843 745.648132,57.731785 
	C756.025024,59.927353 762.285461,58.770824 763.246216,54.384777 
	C760.608215,54.221485 758.012573,54.060810 755.398132,53.898975 
	C756.769226,45.991241 756.769226,45.991196 764.152527,45.990833 
	C766.969604,45.990696 769.786682,45.990810 773.628357,45.990810 
	C771.419983,52.895481 769.470886,59.300728 767.221069,65.598572 
	C766.963196,66.320366 765.031616,66.766472 763.865967,66.787849 
	C757.706665,66.900787 751.542114,66.934273 745.383423,66.804085 
	C740.169800,66.693871 737.029907,63.381912 738.186096,58.356354 
	C739.556702,52.398808 741.499634,46.498974 743.901062,40.875874 
	C745.831116,36.356586 749.910889,33.529293 754.892029,33.289135 
	C762.179016,32.937805 769.495422,33.198753 776.814026,33.198753 
	C776.329834,41.045776 775.824402,41.566196 768.974487,41.567917 
	C767.142700,41.568378 765.310974,41.567932 762.990356,41.567760 
z"/>
<path fill="#EE272E" opacity="1.000000" stroke="none" 
	d="
M613.932007,56.823875 
	C615.436157,51.998344 616.677429,47.503242 618.263672,43.133404 
	C620.775391,36.214523 625.298828,33.182152 632.638611,33.159275 
	C637.299072,33.144749 641.960449,33.102730 646.619995,33.172020 
	C652.268860,33.256020 655.118591,35.938889 653.880005,41.228317 
	C651.990234,49.298458 649.505554,57.268562 646.588501,65.023460 
	C646.050354,66.454285 642.265991,66.664024 639.018921,67.762466 
	C640.291016,63.271938 641.177063,60.144180 642.264893,56.303955 
	C636.378540,56.303955 630.886658,56.303955 625.267334,56.303955 
	C627.087280,48.030064 627.087280,48.030071 634.395996,48.030048 
	C636.393372,48.030045 638.417725,47.819748 640.382568,48.072540 
	C644.819153,48.643345 646.467957,46.612801 646.096619,41.666897 
	C639.934509,41.666897 633.703552,41.535065 627.490784,41.810734 
	C626.571594,41.851517 625.353943,43.686184 624.930725,44.916649 
	C623.040161,50.413406 621.084229,55.919884 619.742493,61.563255 
	C618.621094,66.280426 616.281250,67.962135 611.055664,66.347031 
	C611.968445,63.334385 612.896118,60.272442 613.932007,56.823875 
z"/>
<path fill="#2F2B2C" opacity="1.000000" stroke="none" 
	d="
M660.057434,346.278809 
	C657.814819,347.232605 655.853333,347.933319 653.602600,348.737305 
	C655.051270,351.991394 656.510498,355.269226 658.013489,358.645416 
	C649.322021,359.487701 649.331726,359.483154 645.853699,352.095612 
	C644.036865,348.236603 642.178833,344.397034 640.007751,339.854858 
	C645.128174,339.854858 649.411682,339.651550 653.666687,339.912262 
	C657.888794,340.170990 659.457153,338.371490 658.993896,333.648682 
	C652.891418,333.648682 646.796448,333.493378 640.726135,333.810486 
	C639.779236,333.859924 638.508240,335.940125 638.131531,337.289124 
	C636.170105,344.312225 634.449646,351.402649 632.584290,358.708801 
	C630.400208,358.708801 628.316101,358.708801 625.682312,358.708801 
	C628.569214,347.451782 631.394043,336.436493 634.284607,325.165161 
	C643.050903,325.165161 651.524414,325.035339 659.991211,325.216919 
	C664.607300,325.315948 667.548950,328.531647 666.353027,333.307831 
	C665.235779,337.769379 662.411438,341.803497 660.057434,346.278809 
z"/>
<path fill="#302C2D" opacity="1.000000" stroke="none" 
	d="
M594.764282,352.841919 
	C594.132019,358.104126 591.826111,360.354492 586.300293,358.404755 
	C588.509216,350.170685 590.413940,341.789734 593.058411,333.649078 
	C594.917786,327.925262 599.227417,324.810547 605.646179,325.111023 
	C609.962646,325.313080 614.297302,325.087708 618.621704,325.166748 
	C624.580139,325.275635 627.471680,328.303558 626.322510,333.976593 
	C624.774719,341.617157 622.938965,349.231873 620.565796,356.646057 
	C620.075195,358.178650 616.683044,358.782471 614.628296,359.814331 
	C614.291626,359.431976 613.955017,359.049622 613.618408,358.667267 
	C614.235779,355.523651 614.853088,352.380035 615.604980,348.551208 
	C610.118530,348.551208 604.923584,348.551208 599.247864,348.551208 
	C600.043396,345.461884 600.651001,343.102203 601.415527,340.133179 
	C605.291260,340.133179 609.222717,340.138763 613.154175,340.131866 
	C618.613281,340.122284 618.613281,340.118256 619.097290,333.650787 
	C613.303162,333.650787 607.525513,333.486877 601.774109,333.802155 
	C600.740784,333.858765 599.320862,335.741455 598.927979,337.038116 
	C597.388672,342.118134 596.189331,347.301178 594.764282,352.841919 
z"/>
<path fill="#2E2B2C" opacity="1.000000" stroke="none" 
	d="
M925.753052,342.654602 
	C922.642090,345.115417 919.739685,347.268158 916.407410,349.739685 
	C917.409851,351.928772 918.897644,355.177612 920.459045,358.587372 
	C911.764343,359.515717 911.752075,359.521515 908.375244,352.398895 
	C906.478271,348.397705 904.629822,344.373535 902.524109,339.854462 
	C907.352173,339.854462 911.515808,339.597839 915.633118,339.925201 
	C919.923096,340.266266 921.865601,338.657013 921.651794,334.000854 
	C915.059326,334.000854 908.490723,334.000854 901.427429,334.000854 
	C899.306885,342.066010 897.126709,350.358154 894.922791,358.740387 
	C892.624512,358.740387 890.521484,358.740387 888.096924,358.740387 
	C890.800537,348.163239 893.327759,337.869751 896.187195,327.669434 
	C896.499390,326.555878 898.701599,325.314453 900.067932,325.265259 
	C906.880554,325.019989 913.707092,325.113586 920.528198,325.164948 
	C927.261047,325.215637 929.995850,328.350830 928.722473,334.933289 
	C928.228577,337.486847 926.906433,339.880188 925.753052,342.654602 
z"/>
<path fill="#2E2B2C" opacity="1.000000" stroke="none" 
	d="
M501.659668,61.601906 
	C498.091492,65.604980 493.974915,67.180664 488.956055,66.912872 
	C484.637970,66.682472 480.296295,66.938370 475.967926,66.845467 
	C470.313568,66.724106 467.091736,63.052383 468.417725,57.743420 
	C469.743774,52.434185 471.251312,47.091957 473.438812,42.096802 
	C475.948608,36.365650 480.585388,33.045319 487.198639,33.127350 
	C492.027893,33.187252 496.863464,33.007652 501.687134,33.183514 
	C506.905884,33.373772 510.113892,36.722927 508.816650,41.710449 
	C507.077576,48.396801 504.258209,54.802185 501.659668,61.601906 
M486.462646,58.533585 
	C488.452942,58.533726 490.481049,58.770840 492.421936,58.461224 
	C494.061554,58.199661 496.570160,57.702946 497.015076,56.620277 
	C498.915405,51.996075 500.193115,47.116016 501.932159,41.584476 
	C494.871399,41.584476 488.939087,41.508751 483.012543,41.660152 
	C482.042206,41.684944 480.528198,42.502651 480.234436,43.307529 
	C478.504089,48.048878 477.060608,52.894917 475.255524,58.533463 
	C479.324402,58.533463 482.419861,58.533463 486.462646,58.533585 
z"/>
<path fill="#2E2A2B" opacity="1.000000" stroke="none" 
	d="
M881.387573,325.177795 
	C887.875183,326.826263 889.820740,329.752991 888.491760,335.686127 
	C887.514893,340.047272 886.420593,344.396454 885.090149,348.660919 
	C882.879639,355.746429 878.457947,358.916382 871.108765,358.981140 
	C866.957458,359.017731 862.803101,359.071991 858.654480,358.958771 
	C853.005005,358.804657 850.088928,356.014069 850.937317,350.454529 
	C851.830566,344.600861 853.239807,338.696838 855.409180,333.204071 
	C857.489685,327.936005 861.974182,325.031647 867.997253,325.141144 
	C872.313660,325.219666 876.632507,325.158997 881.387573,325.177795 
M878.091675,333.596130 
	C873.954102,333.596252 869.808105,333.445984 865.683472,333.677307 
	C864.222229,333.759277 861.871521,334.447357 861.539551,335.413086 
	C859.907898,340.159668 858.818848,345.092743 857.537109,349.964020 
	C874.454651,353.683472 878.216492,351.616974 881.140869,337.641998 
	C881.242371,337.156891 881.657593,336.478821 881.473145,336.238098 
	C880.743347,335.285431 879.832825,334.471191 878.091675,333.596130 
z"/>
<path fill="#2D2A2B" opacity="1.000000" stroke="none" 
	d="
M810.984741,351.749207 
	C812.360352,345.542419 813.262024,339.583344 815.253540,334.014008 
	C817.229675,328.487610 821.577026,325.182526 827.824524,325.163483 
	C832.308777,325.149841 836.798523,325.027924 841.276062,325.203400 
	C846.739258,325.417511 849.806091,328.591064 848.890503,333.947723 
	C847.891785,339.791229 846.460022,345.677307 844.268494,351.166168 
	C842.247375,356.228271 837.968323,359.139618 832.097229,359.005280 
	C827.781189,358.906494 823.460938,358.958771 819.142883,358.990936 
	C814.470337,359.025757 811.550781,357.018677 810.984741,351.749207 
M832.488403,333.592468 
	C830.003845,333.592987 827.488647,333.363617 825.047363,333.688995 
	C823.785400,333.857178 821.913757,334.768555 821.591064,335.759033 
	C820.084717,340.382721 819.022339,345.151062 817.580200,350.721375 
	C824.246094,350.721375 829.991882,350.835693 835.724670,350.613831 
	C836.732300,350.574829 838.258850,349.302795 838.565369,348.300385 
	C839.955872,343.753601 840.995239,339.099396 842.386047,333.592377 
	C838.979797,333.592377 836.220581,333.592377 832.488403,333.592468 
z"/>
<path fill="#2B2828" opacity="1.000000" stroke="none" 
	d="
M512.175110,47.104004 
	C513.787781,42.350063 514.080261,36.203568 517.146729,34.099209 
	C520.470337,31.818293 526.377808,33.253139 531.160339,33.162632 
	C535.148071,33.087173 539.138672,33.176670 543.127563,33.143047 
	C547.702942,33.104485 549.789795,35.575829 549.962097,39.909523 
	C550.305115,48.538166 543.213440,55.993946 534.689087,56.016132 
	C530.367432,56.027382 526.013123,56.348408 521.733459,55.924637 
	C517.585327,55.513889 515.506897,56.957966 515.018311,61.013626 
	C514.392456,66.208885 511.679504,68.253296 506.219666,66.306107 
	C508.156097,60.085739 510.116425,53.788784 512.175110,47.104004 
M524.098206,41.432915 
	C519.331421,41.116592 520.431274,45.037495 519.266479,47.927773 
	C525.270020,47.927773 530.909607,47.699039 536.521179,47.997372 
	C541.342712,48.253700 542.429077,45.897003 542.122437,41.432358 
	C536.225708,41.432358 530.605347,41.432358 524.098206,41.432915 
z"/>
<path fill="#2E2B2C" opacity="1.000000" stroke="none" 
	d="
M787.918335,358.990295 
	C782.786926,358.990295 778.141235,358.990295 772.735046,358.990295 
	C774.630066,351.601166 776.409729,344.661957 778.210449,337.640808 
	C780.550476,337.640808 782.504456,337.640808 784.969421,337.640808 
	C783.937256,342.005432 782.972168,346.086365 781.878357,350.711609 
	C786.811218,350.711609 791.259521,350.886688 795.676514,350.592041 
	C796.821716,350.515656 798.496216,349.169983 798.850586,348.062622 
	C800.257324,343.667297 801.237610,339.135437 802.576538,333.864319 
	C794.603699,333.864319 787.244263,333.864319 779.247559,333.864319 
	C780.065491,330.561249 780.687439,328.049377 781.389893,325.212463 
	C788.507690,325.212463 795.483276,324.996735 802.437439,325.289795 
	C806.924561,325.478882 809.889465,328.337311 809.098267,332.854187 
	C807.960876,339.346924 806.555237,345.948883 804.054138,352.004456 
	C801.309814,358.649109 794.934021,359.557922 787.918335,358.990295 
z"/>
<path fill="#2D2A2B" opacity="1.000000" stroke="none" 
	d="
M893.709106,53.171204 
	C895.773682,48.574272 897.974243,43.798016 899.298096,38.790020 
	C900.535400,34.109364 902.620239,31.872061 908.232422,33.665314 
	C904.806946,44.623329 901.374146,55.604866 898.025879,66.315704 
	C892.770386,68.118408 890.029846,66.311333 888.293335,61.487015 
	C886.444946,56.351807 883.843628,51.487633 881.000000,45.253109 
	C878.428650,53.121445 876.210693,59.908436 874.009033,66.645401 
	C871.594421,66.645401 869.470703,66.645401 866.913147,66.645401 
	C870.256897,56.050968 873.422607,45.751556 876.855469,35.541962 
	C877.216064,34.469601 879.243347,33.175827 880.337097,33.308304 
	C882.144775,33.527260 884.663513,34.370819 885.406128,35.747570 
	C888.398865,41.296177 890.826233,47.149773 893.709106,53.171204 
z"/>
<path fill="#EE282F" opacity="1.000000" stroke="none" 
	d="
M738.394653,41.527596 
	C736.126404,48.728039 734.054565,55.574711 731.850159,62.378456 
	C731.189636,64.417480 731.258667,66.993210 727.725891,66.957153 
	C724.667175,66.925941 722.949219,66.180115 721.735046,63.162636 
	C719.394470,57.345779 716.549866,51.731747 713.531555,45.206184 
	C711.050964,52.949135 708.883362,59.715157 706.675293,66.607422 
	C704.413940,66.607422 702.310364,66.607422 699.583313,66.607422 
	C702.973389,55.782299 706.158386,45.318882 709.649475,34.958580 
	C709.966797,34.016838 712.350525,33.108406 713.595886,33.306808 
	C715.225098,33.566391 717.382080,34.573109 718.081604,35.904797 
	C721.085693,41.623688 723.638794,47.579514 726.969238,54.773174 
	C728.934631,48.597870 730.843079,43.704678 732.003906,38.640129 
	C733.140808,33.680473 735.627686,31.979630 740.747070,33.657810 
	C740.014465,36.147545 739.277405,38.652462 738.394653,41.527596 
z"/>
<path fill="#2E2B2C" opacity="1.000000" stroke="none" 
	d="
M749.067139,341.448792 
	C747.540161,347.423187 746.085571,353.017212 744.597290,358.741028 
	C742.312439,358.741028 740.224060,358.741028 737.719421,358.741028 
	C740.458313,348.148499 743.049988,337.870667 745.860168,327.652954 
	C746.140564,326.633270 747.850464,325.203888 748.722656,325.316406 
	C750.557800,325.553101 753.143982,326.200928 753.894409,327.537567 
	C757.200684,333.427063 759.963928,339.621368 763.413696,346.711761 
	C765.497009,338.875610 767.289246,332.134308 769.092590,325.351379 
	C771.368408,325.351379 773.315796,325.351379 775.851624,325.351379 
	C773.137268,336.044098 770.569763,346.435730 767.761169,356.761780 
	C767.501160,357.717957 765.593872,358.983978 764.652283,358.835175 
	C762.833740,358.547791 760.320190,357.815613 759.568970,356.454285 
	C756.299927,350.530457 753.561340,344.313934 750.418823,337.763367 
	C749.852661,339.226074 749.496155,340.147247 749.067139,341.448792 
z"/>
<path fill="#302C2D" opacity="1.000000" stroke="none" 
	d="
M799.164673,52.081268 
	C800.093750,49.166546 800.869812,46.621990 801.763672,44.119549 
	C804.435974,36.638866 809.305237,33.168060 817.149719,33.137772 
	C823.616821,33.112804 830.084106,33.132675 836.607117,33.132675 
	C835.151001,41.582581 835.151001,41.582619 827.521912,41.581684 
	C822.859741,41.581112 818.160706,41.244274 813.554199,41.750423 
	C811.789368,41.944332 809.479797,43.723660 808.738098,45.373745 
	C806.997070,49.246460 806.052307,53.477051 804.564087,58.276112 
	C812.981506,58.276112 820.716248,58.276112 828.511658,58.276112 
	C827.432922,66.871841 827.432922,66.871887 819.660034,66.871391 
	C815.330872,66.871117 811.001709,66.885460 806.672607,66.867065 
	C798.862549,66.833878 796.130127,63.336403 798.029907,55.797844 
	C798.313354,54.673229 798.717285,53.578987 799.164673,52.081268 
z"/>
<path fill="#EE262E" opacity="1.000000" stroke="none" 
	d="
M688.331360,41.563896 
	C682.072754,41.567688 676.240784,41.396046 670.430298,41.673599 
	C668.732788,41.754684 666.140808,42.707329 665.604858,43.963047 
	C663.743286,48.324497 662.604919,52.994640 660.970703,58.258263 
	C669.430054,58.258263 677.010620,58.258263 684.596558,58.258263 
	C684.402710,66.131004 683.690735,66.842827 676.505432,66.842583 
	C671.513672,66.842415 666.520203,66.918121 661.530518,66.814781 
	C655.901855,66.698204 652.855530,63.582481 654.075745,58.191601 
	C655.423218,52.238602 656.939697,46.023457 659.976074,40.859470 
	C661.977112,37.456253 666.548279,34.161709 670.401367,33.551620 
	C677.675598,32.399830 685.261902,33.218975 694.556335,33.218975 
	C692.137695,36.703114 690.451965,39.131447 688.331360,41.563896 
z"/>
<path fill="#2D2A2B" opacity="1.000000" stroke="none" 
	d="
M565.455139,331.544800 
	C564.901001,333.695404 564.487549,335.468445 563.752014,338.622375 
	C566.088074,337.602753 567.867798,337.220642 569.120728,336.195038 
	C571.553955,334.203217 573.926208,332.040161 575.899170,329.604279 
	C579.299561,325.406067 583.454956,324.200043 588.627075,325.497437 
	C583.157532,330.948059 577.715393,336.371368 572.137756,341.929718 
	C575.367371,347.597382 578.363342,352.855164 581.416138,358.212616 
	C573.405701,359.960602 573.294739,359.769379 569.382935,353.420654 
	C567.758789,350.784790 565.403015,348.599670 563.380005,346.209595 
	C562.112427,349.015686 560.197632,351.716278 559.719177,354.651001 
	C558.862061,359.908539 555.664124,359.189667 551.610535,358.688660 
	C554.506836,347.390778 557.327698,336.387024 560.162292,325.329712 
	C562.499939,325.329712 564.451111,325.329712 566.867126,325.329712 
	C566.406799,327.443268 566.001282,329.305267 565.455139,331.544800 
z"/>
<path fill="#322F30" opacity="1.000000" stroke="none" 
	d="
M445.046265,53.924767 
	C446.301727,49.761631 447.471527,45.990192 448.812866,41.665737 
	C444.443146,41.665737 440.671234,41.665737 436.880981,41.665737 
	C437.459961,33.309525 437.654327,33.124645 445.441864,33.124683 
	C453.906250,33.124722 462.370636,33.124691 470.843903,33.124691 
	C470.515991,41.079769 469.973389,42.044376 462.787292,41.445980 
	C457.326233,40.991234 455.097076,43.030796 454.030914,48.056339 
	C453.071503,52.578732 450.943329,56.862644 450.085480,61.394615 
	C449.098083,66.610954 446.318604,67.795860 441.193878,66.415672 
	C442.451111,62.377243 443.705841,58.346851 445.046265,53.924767 
z"/>
<path fill="#322F30" opacity="1.000000" stroke="none" 
	d="
M926.011841,33.125473 
	C932.478760,33.125473 938.448914,33.125473 944.424988,33.125473 
	C944.169800,40.963245 943.515991,41.878944 936.042908,41.487251 
	C931.321228,41.239765 928.810547,42.458935 927.835938,47.421173 
	C926.884094,52.267883 924.551636,56.840862 923.569153,61.684868 
	C922.559082,66.665184 919.953857,67.819275 914.846191,66.349907 
	C917.305725,58.337971 919.784241,50.263824 922.419189,41.680374 
	C917.999207,41.680374 914.223083,41.680374 909.647888,41.680374 
	C910.659180,38.528309 911.488159,35.944572 912.392578,33.125469 
	C916.906799,33.125469 921.210938,33.125469 926.011841,33.125473 
z"/>
<path fill="#322F30" opacity="1.000000" stroke="none" 
	d="
M686.027527,325.141663 
	C692.802368,325.141663 699.083191,325.141663 705.809998,325.141663 
	C705.034607,328.172638 704.387634,330.701508 703.644897,333.604675 
	C699.560425,333.604675 695.629211,333.604675 691.501282,333.604675 
	C689.230286,342.231293 687.052734,350.502869 684.857788,358.840698 
	C682.585876,358.840698 680.630493,358.840698 678.079285,358.840698 
	C680.169983,350.499359 682.193420,342.426147 684.388489,333.668427 
	C680.227417,333.668427 676.522400,333.668427 672.277405,333.668427 
	C673.077576,330.457672 673.700256,327.959167 674.402466,325.141632 
	C678.269287,325.141632 681.901367,325.141632 686.027527,325.141663 
z"/>
<path fill="#EE2A31" opacity="1.000000" stroke="none" 
	d="
M704.805298,34.003193 
	C702.071655,43.442207 698.973328,52.404358 696.572021,61.549522 
	C695.325684,66.296387 693.125122,67.922897 687.791992,66.305397 
	C691.219299,55.347054 694.647766,44.385155 698.197998,33.033817 
	C700.533936,33.237103 702.631775,33.419662 704.805298,34.003193 
z"/>
<path fill="#302C2D" opacity="1.000000" stroke="none" 
	d="
M735.187988,347.341187 
	C734.140564,351.418304 733.198120,355.095612 732.242859,358.823181 
	C729.961182,358.823181 728.010925,358.823181 725.403870,358.823181 
	C728.290466,347.499512 731.097290,336.488983 733.936218,325.352234 
	C736.160767,325.352234 738.107483,325.352234 740.806091,325.352234 
	C738.928955,332.703125 737.111023,339.822266 735.187988,347.341187 
z"/>
<path fill="#F6F6F6" opacity="1.000000" stroke="none" 
	d="
M485.988983,58.533524 
	C482.419861,58.533463 479.324402,58.533463 475.255524,58.533463 
	C477.060608,52.894917 478.504089,48.048878 480.234436,43.307529 
	C480.528198,42.502651 482.042206,41.684944 483.012543,41.660152 
	C488.939087,41.508751 494.871399,41.584476 501.932159,41.584476 
	C500.193115,47.116016 498.915405,51.996075 497.015076,56.620277 
	C496.570160,57.702946 494.061554,58.199661 492.421936,58.461224 
	C490.481049,58.770840 488.452942,58.533726 485.988983,58.533524 
z"/>
<path fill="#F9F9F9" opacity="1.000000" stroke="none" 
	d="
M878.540527,333.600891 
	C879.832825,334.471191 880.743347,335.285431 881.473145,336.238098 
	C881.657593,336.478821 881.242371,337.156891 881.140869,337.641998 
	C878.216492,351.616974 874.454651,353.683472 857.537109,349.964020 
	C858.818848,345.092743 859.907898,340.159668 861.539551,335.413086 
	C861.871521,334.447357 864.222229,333.759277 865.683472,333.677307 
	C869.808105,333.445984 873.954102,333.596252 878.540527,333.600891 
z"/>
<path fill="#F9F9F9" opacity="1.000000" stroke="none" 
	d="
M832.974915,333.592407 
	C836.220581,333.592377 838.979797,333.592377 842.386047,333.592377 
	C840.995239,339.099396 839.955872,343.753601 838.565369,348.300385 
	C838.258850,349.302795 836.732300,350.574829 835.724670,350.613831 
	C829.991882,350.835693 824.246094,350.721375 817.580200,350.721375 
	C819.022339,345.151062 820.084717,340.382721 821.591064,335.759033 
	C821.913757,334.768555 823.785400,333.857178 825.047363,333.688995 
	C827.488647,333.363617 830.003845,333.592987 832.974915,333.592407 
z"/>
<path fill="#E7E7E7" opacity="1.000000" stroke="none" 
	d="
M524.541626,41.432636 
	C530.605347,41.432358 536.225708,41.432358 542.122437,41.432358 
	C542.429077,45.897003 541.342712,48.253700 536.521179,47.997372 
	C530.909607,47.699039 525.270020,47.927773 519.266479,47.927773 
	C520.431274,45.037495 519.331421,41.116592 524.541626,41.432636 
z"/>
</svg>