<svg version="1.1" id="Layer_1" xmlns="http://www.w3.org/2000/svg" xmlns:xlink="http://www.w3.org/1999/xlink" x="0px" y="0px"
	 width="100%" viewBox="0 0 1080 236" enable-background="new 0 0 1080 236" xml:space="preserve">
<path fill="#FFFEFE" opacity="1.000000" stroke="none" 
	d="
M728.000000,237.000000 
	C485.333344,237.000000 243.166672,237.000000 1.000000,237.000000 
	C1.000000,158.333328 1.000000,79.666664 1.000000,1.000000 
	C361.000000,1.000000 721.000000,1.000000 1081.000000,1.000000 
	C1081.000000,79.666664 1081.000000,158.333328 1081.000000,237.000000 
	C963.500000,237.000000 846.000000,237.000000 728.000000,237.000000 
M290.084320,24.717344 
	C285.897095,29.918106 281.709869,35.118870 276.813416,41.200535 
	C284.497192,41.200535 290.783386,41.200535 296.469086,41.652882 
	C291.537445,47.271198 286.605835,52.889519 280.756165,59.553711 
	C286.875641,59.553711 291.321686,59.678082 295.755829,59.502056 
	C298.026001,59.411930 301.116058,59.587009 302.384583,58.257645 
	C307.312561,53.093288 311.658752,47.373741 316.919067,41.017948 
	C309.473541,41.017948 303.501984,41.017948 297.884369,40.391598 
	C302.570984,34.804188 307.257599,29.216782 312.842743,23.939926 
	C319.054321,23.932285 325.265900,23.924646 331.157288,24.562286 
	C326.413544,30.158064 321.669769,35.753841 316.236450,42.163040 
	C323.094574,42.163040 328.558502,42.279873 334.011658,42.088692 
	C335.558716,42.034454 337.600525,41.532818 338.514771,40.465122 
	C342.878113,35.369446 346.931427,30.008280 351.694397,23.983274 
	C344.189636,23.983274 337.770264,23.983274 331.815369,23.422218 
	C336.674133,17.892136 341.532928,12.362050 347.275604,5.825908 
	C341.084595,5.825908 336.459290,6.104754 331.884094,5.745437 
	C327.535675,5.403929 324.655975,7.163896 322.172974,10.466547 
	C318.875702,14.852279 315.354889,19.069931 311.031738,23.133133 
	C305.237762,23.036167 299.443787,22.939203 293.933502,22.217022 
	C298.147736,17.032219 302.361969,11.847418 307.233337,5.854141 
	C300.514435,5.854141 295.060059,5.722532 289.619537,5.938931 
	C288.100433,5.999354 286.154572,6.680876 285.205139,7.773303 
	C280.805420,12.835610 276.687439,18.142786 271.885864,24.083179 
	C278.787140,24.083179 284.587463,24.083179 290.084320,24.717344 
M657.500000,228.167648 
	C729.983154,228.167267 802.466431,228.106384 874.949402,228.220078 
	C888.631287,228.241547 899.428223,223.166382 907.566528,212.170593 
	C913.609070,204.006393 919.843140,195.984024 925.979553,187.889175 
	C927.117798,186.387650 928.197510,184.841751 929.934021,182.448441 
	C926.849792,182.448441 924.896423,182.448441 922.943115,182.448441 
	C815.800659,182.448441 708.658264,182.427414 601.515869,182.535675 
	C597.755310,182.539459 595.475281,181.383453 593.265137,178.394470 
	C581.682312,162.729980 569.874390,147.232025 558.159363,131.665115 
	C557.117004,130.280075 556.180054,128.815720 554.817993,126.843590 
	C573.258972,126.843590 590.898254,126.715454 608.534607,126.888870 
	C620.191406,127.003479 628.386230,122.200485 633.888794,111.758011 
	C651.640137,78.070312 669.696167,44.543201 687.623962,10.948428 
	C688.437683,9.423470 689.145203,7.841849 690.123352,5.832371 
	C687.411377,5.832371 685.419434,5.832371 683.427429,5.832371 
	C609.777466,5.832371 536.127441,5.829051 462.477448,5.835965 
	C451.480377,5.836997 440.479706,5.721704 429.487213,5.959642 
	C418.706909,6.192988 409.716644,10.755320 403.100800,19.121002 
	C395.359955,28.909204 388.196869,39.154503 380.800507,49.214275 
	C380.446655,49.695545 380.260406,50.300022 379.612427,51.641380 
	C453.349976,51.641380 526.474365,51.641380 600.300842,51.641380 
	C595.290283,61.654758 590.508606,70.759094 586.192688,80.079048 
	C584.671326,83.364395 582.778503,84.243477 579.353455,84.228760 
	C550.027283,84.102768 520.700195,84.200714 491.373688,84.132172 
	C481.790680,84.109772 474.009827,87.297905 469.490936,96.140419 
	C464.844543,105.232414 466.359192,113.692078 472.415833,121.797546 
	C497.931122,155.943970 523.359619,190.155579 548.678040,224.448059 
	C550.826111,227.357422 553.031860,228.259033 556.522949,228.245407 
	C589.848267,228.115204 623.174194,228.167664 657.500000,228.167648 
M740.968994,11.364527 
	C733.469360,15.737139 727.468811,21.611372 723.266663,29.233973 
	C698.319519,74.488113 673.387817,119.750778 648.463989,165.017792 
	C647.457214,166.846344 646.582458,168.747574 645.368225,171.169342 
	C647.688416,171.169342 649.316589,171.169357 650.944763,171.169357 
	C668.944031,171.169357 686.944702,171.054489 704.941528,171.264923 
	C708.602600,171.307724 710.451050,170.211685 712.168213,166.940933 
	C731.316406,130.468414 750.721191,94.130539 769.832764,57.639027 
	C771.900269,53.691349 774.135254,52.384647 778.577026,52.398544 
	C833.907654,52.571678 889.239380,52.394268 944.569824,52.590343 
	C959.318665,52.642609 970.529968,46.891041 978.883972,34.894360 
	C984.874878,26.291307 991.137573,17.877687 997.257690,9.364187 
	C997.960144,8.386927 998.524597,7.310447 999.427124,5.830651 
	C996.871399,5.830651 995.043335,5.830651 993.215271,5.830651 
	C917.218262,5.830651 841.221130,5.870092 765.224243,5.774568 
	C756.883606,5.764084 749.034973,7.221169 740.968994,11.364527 
M254.531067,107.836182 
	C277.594238,107.836182 300.657410,107.836182 324.621552,107.836182 
	C295.218079,148.183838 266.392242,187.738861 236.929672,228.167618 
	C239.542343,228.167618 241.121765,228.167618 242.701202,228.167618 
	C262.196167,228.167618 281.695587,227.936172 301.183319,228.312241 
	C306.840240,228.421417 309.961060,226.560257 313.139801,221.914536 
	C337.938843,185.670990 363.097321,149.673492 388.057587,113.539764 
	C389.827667,110.977310 391.616119,109.845940 394.881042,109.905380 
	C407.706818,110.138908 420.539337,110.009171 433.369324,109.989532 
	C434.808563,109.987328 436.247528,109.827423 437.875763,109.729248 
	C437.539215,101.336914 439.066650,93.532898 444.069611,87.277824 
	C448.894531,81.245323 454.850372,76.117371 459.907288,70.999031 
	C459.067932,70.999031 457.242065,70.999031 455.416199,70.999031 
	C399.930542,70.999031 344.444916,70.994324 288.959259,71.005806 
	C282.966309,71.007050 276.072205,69.273270 271.229675,71.659454 
	C266.219879,74.128044 263.147430,80.594940 259.324677,85.390282 
	C253.574402,92.603485 247.908661,99.884056 241.656464,107.836182 
	C246.315842,107.836182 249.931885,107.836182 254.531067,107.836182 
M976.091064,186.214447 
	C973.856934,185.595367 971.657043,184.773026 969.383118,184.390213 
	C954.773926,181.930573 941.044373,194.803909 943.304382,208.763901 
	C945.043823,219.507843 953.302490,227.308777 963.698608,228.027725 
	C975.357727,228.834015 984.918823,222.759247 988.100403,212.523773 
	C991.293884,202.250275 987.047241,192.564484 976.091064,186.214447 
M243.627686,59.550655 
	C246.449265,59.552711 249.276886,59.672184 252.090851,59.526829 
	C255.536163,59.348873 260.131683,60.240040 262.182892,58.394199 
	C267.537933,53.575268 271.777100,47.516304 277.150208,41.133358 
	C272.755798,41.133358 269.879883,41.514351 267.141632,41.062004 
	C258.891754,39.699139 253.105820,42.827477 249.051208,49.939888 
	C247.177078,53.227432 244.938751,56.307362 243.627686,59.550655 
M354.673065,20.202942 
	C353.898407,21.337275 353.123749,22.471607 352.076141,24.005630 
	C357.891602,24.005630 363.037781,24.169939 368.163574,23.918756 
	C370.020874,23.827742 372.417603,23.275442 373.556458,22.017601 
	C378.030945,17.075737 382.102203,11.768833 386.630035,6.221556 
	C367.231934,4.401106 367.232147,4.401286 356.057281,18.469126 
	C355.747803,18.858728 355.422211,19.235529 354.673065,20.202942 
z"/>
<path fill="#EE272E" opacity="1.000000" stroke="none" 
	d="
M657.000000,228.167664 
	C623.174194,228.167664 589.848267,228.115204 556.522949,228.245407 
	C553.031860,228.259033 550.826111,227.357422 548.678040,224.448059 
	C523.359619,190.155579 497.931122,155.943970 472.415833,121.797546 
	C466.359192,113.692078 464.844543,105.232414 469.490936,96.140419 
	C474.009827,87.297905 481.790680,84.109772 491.373688,84.132172 
	C520.700195,84.200714 550.027283,84.102768 579.353455,84.228760 
	C582.778503,84.243477 584.671326,83.364395 586.192688,80.079048 
	C590.508606,70.759094 595.290283,61.654758 600.300842,51.641380 
	C526.474365,51.641380 453.349976,51.641380 379.612427,51.641380 
	C380.260406,50.300022 380.446655,49.695545 380.800507,49.214275 
	C388.196869,39.154503 395.359955,28.909204 403.100800,19.121002 
	C409.716644,10.755320 418.706909,6.192988 429.487213,5.959642 
	C440.479706,5.721704 451.480377,5.836997 462.477448,5.835965 
	C536.127441,5.829051 609.777466,5.832371 683.427429,5.832371 
	C685.419434,5.832371 687.411377,5.832371 690.123352,5.832371 
	C689.145203,7.841849 688.437683,9.423470 687.623962,10.948428 
	C669.696167,44.543201 651.640137,78.070312 633.888794,111.758011 
	C628.386230,122.200485 620.191406,127.003479 608.534607,126.888870 
	C590.898254,126.715454 573.258972,126.843590 554.817993,126.843590 
	C556.180054,128.815720 557.117004,130.280075 558.159363,131.665115 
	C569.874390,147.232025 581.682312,162.729980 593.265137,178.394470 
	C595.475281,181.383453 597.755310,182.539459 601.515869,182.535675 
	C708.658264,182.427414 815.800659,182.448441 922.943115,182.448441 
	C924.896423,182.448441 926.849792,182.448441 929.934021,182.448441 
	C928.197510,184.841751 927.117798,186.387650 925.979553,187.889175 
	C919.843140,195.984024 913.609070,204.006393 907.566528,212.170593 
	C899.428223,223.166382 888.631287,228.241547 874.949402,228.220078 
	C802.466431,228.106384 729.983154,228.167267 657.000000,228.167664 
z"/>
<path fill="#060808" opacity="1.000000" stroke="none" 
	d="
M741.292480,11.182783 
	C749.034973,7.221169 756.883606,5.764084 765.224243,5.774568 
	C841.221130,5.870092 917.218262,5.830651 993.215271,5.830651 
	C995.043335,5.830651 996.871399,5.830651 999.427124,5.830651 
	C998.524597,7.310447 997.960144,8.386927 997.257690,9.364187 
	C991.137573,17.877687 984.874878,26.291307 978.883972,34.894360 
	C970.529968,46.891041 959.318665,52.642609 944.569824,52.590343 
	C889.239380,52.394268 833.907654,52.571678 778.577026,52.398544 
	C774.135254,52.384647 771.900269,53.691349 769.832764,57.639027 
	C750.721191,94.130539 731.316406,130.468414 712.168213,166.940933 
	C710.451050,170.211685 708.602600,171.307724 704.941528,171.264923 
	C686.944702,171.054489 668.944031,171.169357 650.944763,171.169357 
	C649.316589,171.169357 647.688416,171.169342 645.368225,171.169342 
	C646.582458,168.747574 647.457214,166.846344 648.463989,165.017792 
	C673.387817,119.750778 698.319519,74.488113 723.266663,29.233973 
	C727.468811,21.611372 733.469360,15.737139 741.292480,11.182783 
z"/>
<path fill="#050707" opacity="1.000000" stroke="none" 
	d="
M254.039490,107.836182 
	C249.931885,107.836182 246.315842,107.836182 241.656464,107.836182 
	C247.908661,99.884056 253.574402,92.603485 259.324677,85.390282 
	C263.147430,80.594940 266.219879,74.128044 271.229675,71.659454 
	C276.072205,69.273270 282.966309,71.007050 288.959259,71.005806 
	C344.444916,70.994324 399.930542,70.999031 455.416199,70.999031 
	C457.242065,70.999031 459.067932,70.999031 459.907288,70.999031 
	C454.850372,76.117371 448.894531,81.245323 444.069611,87.277824 
	C439.066650,93.532898 437.539215,101.336914 437.875763,109.729248 
	C436.247528,109.827423 434.808563,109.987328 433.369324,109.989532 
	C420.539337,110.009171 407.706818,110.138908 394.881042,109.905380 
	C391.616119,109.845940 389.827667,110.977310 388.057587,113.539764 
	C363.097321,149.673492 337.938843,185.670990 313.139801,221.914536 
	C309.961060,226.560257 306.840240,228.421417 301.183319,228.312241 
	C281.695587,227.936172 262.196167,228.167618 242.701202,228.167618 
	C241.121765,228.167618 239.542343,228.167618 236.929672,228.167618 
	C266.392242,187.738861 295.218079,148.183838 324.621552,107.836182 
	C300.657410,107.836182 277.594238,107.836182 254.039490,107.836182 
z"/>
<path fill="#151717" opacity="1.000000" stroke="none" 
	d="
M976.415649,186.413971 
	C987.047241,192.564484 991.293884,202.250275 988.100403,212.523773 
	C984.918823,222.759247 975.357727,228.834015 963.698608,228.027725 
	C953.302490,227.308777 945.043823,219.507843 943.304382,208.763901 
	C941.044373,194.803909 954.773926,181.930573 969.383118,184.390213 
	C971.657043,184.773026 973.856934,185.595367 976.415649,186.413971 
M975.264771,222.072845 
	C982.780457,217.132721 985.810547,209.966232 983.930969,201.576202 
	C982.391357,194.703598 976.101196,189.029083 968.950806,188.062042 
	C960.826904,186.963364 953.491638,190.688538 949.830261,197.772369 
	C946.503540,204.208710 947.524170,212.863068 952.250854,218.298111 
	C957.552734,224.394394 965.646423,225.907257 975.264771,222.072845 
z"/>
<path fill="#111313" opacity="1.000000" stroke="none" 
	d="
M243.246613,59.516037 
	C244.938751,56.307362 247.177078,53.227432 249.051208,49.939888 
	C253.105820,42.827477 258.891754,39.699139 267.141632,41.062004 
	C269.879883,41.514351 272.755798,41.133358 277.150208,41.133358 
	C271.777100,47.516304 267.537933,53.575268 262.182892,58.394199 
	C260.131683,60.240040 255.536163,59.348873 252.090851,59.526829 
	C249.276886,59.672184 246.449265,59.552711 243.246613,59.516037 
z"/>
<path fill="#101212" opacity="1.000000" stroke="none" 
	d="
M297.530426,41.017948 
	C303.501984,41.017948 309.473541,41.017948 316.919067,41.017948 
	C311.658752,47.373741 307.312561,53.093288 302.384583,58.257645 
	C301.116058,59.587009 298.026001,59.411930 295.755829,59.502056 
	C291.321686,59.678082 286.875641,59.553711 280.756165,59.553711 
	C286.605835,52.889519 291.537445,47.271198 296.857971,41.495426 
	C297.246887,41.337971 297.530426,41.017948 297.530426,41.017948 
z"/>
<path fill="#080A0A" opacity="1.000000" stroke="none" 
	d="
M311.930115,23.359804 
	C315.354889,19.069931 318.875702,14.852279 322.172974,10.466547 
	C324.655975,7.163896 327.535675,5.403929 331.884094,5.745437 
	C336.459290,6.104754 341.084595,5.825908 347.275604,5.825908 
	C341.532928,12.362050 336.674133,17.892136 331.620697,23.697607 
	C331.426025,23.972996 331.477478,23.917007 331.477478,23.917007 
	C325.265900,23.924646 319.054321,23.932285 312.456909,23.713713 
	C312.071106,23.487499 311.930115,23.359810 311.930115,23.359804 
z"/>
<path fill="#080A0A" opacity="1.000000" stroke="none" 
	d="
M354.888611,19.910625 
	C355.422211,19.235529 355.747803,18.858728 356.057281,18.469126 
	C367.232147,4.401286 367.231934,4.401106 386.630035,6.221556 
	C382.102203,11.768833 378.030945,17.075737 373.556458,22.017601 
	C372.417603,23.275442 370.020874,23.827742 368.163574,23.918756 
	C363.037781,24.169939 357.891602,24.005630 352.076141,24.005630 
	C353.123749,22.471607 353.898407,21.337275 354.888611,19.910625 
z"/>
<path fill="#090B0B" opacity="1.000000" stroke="none" 
	d="
M290.387756,24.083179 
	C284.587463,24.083179 278.787140,24.083179 271.885864,24.083179 
	C276.687439,18.142786 280.805420,12.835610 285.205139,7.773303 
	C286.154572,6.680876 288.100433,5.999354 289.619537,5.938931 
	C295.060059,5.722532 300.514435,5.854141 307.233337,5.854141 
	C302.361969,11.847418 298.147736,17.032219 293.491760,22.545975 
	C292.162628,23.277678 291.275177,23.680428 290.387756,24.083179 
z"/>
<path fill="#EE2930" opacity="1.000000" stroke="none" 
	d="
M290.236023,24.400261 
	C291.275177,23.680428 292.162628,23.277678 293.349915,22.858585 
	C299.443787,22.939203 305.237762,23.036167 311.480927,23.246471 
	C311.930115,23.359810 312.071106,23.487499 312.007660,23.558435 
	C307.257599,29.216782 302.570984,34.804188 297.707397,40.704773 
	C297.530426,41.017948 297.246887,41.337971 297.158234,41.269253 
	C290.783386,41.200535 284.497192,41.200535 276.813416,41.200535 
	C281.709869,35.118870 285.897095,29.918106 290.236023,24.400261 
z"/>
<path fill="#EE292F" opacity="1.000000" stroke="none" 
	d="
M331.317383,24.239647 
	C331.477478,23.917007 331.426025,23.972996 331.388458,23.978134 
	C337.770264,23.983274 344.189636,23.983274 351.694397,23.983274 
	C346.931427,30.008280 342.878113,35.369446 338.514771,40.465122 
	C337.600525,41.532818 335.558716,42.034454 334.011658,42.088692 
	C328.558502,42.279873 323.094574,42.163040 316.236450,42.163040 
	C321.669769,35.753841 326.413544,30.158064 331.317383,24.239647 
z"/>
<path fill="#FAFAFA" opacity="1.000000" stroke="none" 
	d="
M974.931519,222.274048 
	C965.646423,225.907257 957.552734,224.394394 952.250854,218.298111 
	C947.524170,212.863068 946.503540,204.208710 949.830261,197.772369 
	C953.491638,190.688538 960.826904,186.963364 968.950806,188.062042 
	C976.101196,189.029083 982.391357,194.703598 983.930969,201.576202 
	C985.810547,209.966232 982.780457,217.132721 974.931519,222.274048 
M974.397461,205.981964 
	C978.801270,199.420639 976.457153,193.977539 968.854004,193.448624 
	C965.133301,193.189789 961.379700,193.403809 957.556580,193.403809 
	C957.556580,202.337891 957.556580,210.450577 957.556580,218.797989 
	C958.663635,218.855560 960.414124,219.064209 960.440552,218.930817 
	C961.145874,215.375916 961.673523,211.785782 962.402588,207.102356 
	C964.410828,208.430405 966.290222,209.217255 967.504272,210.591766 
	C969.016846,212.304214 969.737061,214.719116 971.257996,216.420822 
	C972.489868,217.799164 974.399841,218.571457 976.009033,219.612564 
	C976.299194,219.208572 976.589355,218.804596 976.879578,218.400604 
	C974.710205,215.087341 972.540894,211.774078 970.250061,208.275177 
	C971.450806,207.627518 972.592285,207.011810 974.397461,205.981964 
z"/>
<path fill="#242626" opacity="1.000000" stroke="none" 
	d="
M974.065613,206.189026 
	C972.592285,207.011810 971.450806,207.627518 970.250061,208.275177 
	C972.540894,211.774078 974.710205,215.087341 976.879578,218.400604 
	C976.589355,218.804596 976.299194,219.208572 976.009033,219.612564 
	C974.399841,218.571457 972.489868,217.799164 971.257996,216.420822 
	C969.737061,214.719116 969.016846,212.304214 967.504272,210.591766 
	C966.290222,209.217255 964.410828,208.430405 962.402588,207.102356 
	C961.673523,211.785782 961.145874,215.375916 960.440552,218.930817 
	C960.414124,219.064209 958.663635,218.855560 957.556580,218.797989 
	C957.556580,210.450577 957.556580,202.337891 957.556580,193.403809 
	C961.379700,193.403809 965.133301,193.189789 968.854004,193.448624 
	C976.457153,193.977539 978.801270,199.420639 974.065613,206.189026 
M961.722717,203.521851 
	C964.257874,203.731857 966.841553,204.307587 969.305664,203.981216 
	C970.368652,203.840393 972.049011,201.705627 971.901306,200.705078 
	C971.700867,199.347031 970.205566,197.467712 968.924622,197.138397 
	C966.660767,196.556366 964.139526,196.975342 961.599243,196.975342 
	C961.599243,199.235703 961.599243,200.887405 961.722717,203.521851 
z"/>
<path fill="#EFEFEF" opacity="1.000000" stroke="none" 
	d="
M961.661011,203.030472 
	C961.599243,200.887405 961.599243,199.235703 961.599243,196.975342 
	C964.139526,196.975342 966.660767,196.556366 968.924622,197.138397 
	C970.205566,197.467712 971.700867,199.347031 971.901306,200.705078 
	C972.049011,201.705627 970.368652,203.840393 969.305664,203.981216 
	C966.841553,204.307587 964.257874,203.731857 961.661011,203.030472 
z"/>
</svg>