<svg width="1080" height="236" viewBox="0 0 1080 236" fill="none" xmlns="http://www.w3.org/2000/svg">
<path d="M657 228.168C623.174 228.168 589.848 228.115 556.523 228.245C553.032 228.259 550.826 227.357 548.678 224.448C523.36 190.156 497.931 155.944 472.416 121.798C466.359 113.692 464.845 105.232 469.491 96.1404C474.01 87.2979 481.791 84.1098 491.374 84.1322C520.7 84.2007 550.027 84.1028 579.353 84.2288C582.779 84.2435 584.671 83.3644 586.193 80.0791C590.509 70.7591 595.29 61.6548 600.301 51.6414C526.474 51.6414 453.35 51.6414 379.612 51.6414C380.26 50.3 380.447 49.6956 380.801 49.2143C388.197 39.1545 395.36 28.9092 403.101 19.121C409.717 10.7553 418.707 6.19301 429.487 5.95967C440.48 5.72173 451.48 5.83702 462.477 5.83599C536.127 5.82908 609.777 5.8324 683.427 5.8324C685.419 5.8324 687.411 5.8324 690.123 5.8324C689.145 7.84187 688.438 9.42349 687.624 10.9485C669.696 44.5432 651.64 78.0703 633.889 111.758C628.386 122.201 620.191 127.004 608.535 126.889C590.898 126.715 573.259 126.844 554.818 126.844C556.18 128.816 557.117 130.28 558.159 131.665C569.874 147.232 581.682 162.73 593.265 178.395C595.475 181.383 597.755 182.539 601.516 182.536C708.658 182.427 815.801 182.448 922.943 182.448C924.896 182.448 926.85 182.448 929.934 182.448C928.198 184.842 927.118 186.388 925.98 187.889C919.843 195.984 913.609 204.006 907.567 212.171C899.428 223.166 888.631 228.242 874.949 228.22C802.466 228.106 729.983 228.167 657 228.168Z" fill="#EE272E"/>
<path d="M741.292 11.1828C749.035 7.22119 756.884 5.76411 765.224 5.77459C841.221 5.87012 917.218 5.83067 993.215 5.83067C995.043 5.83067 996.871 5.83067 999.427 5.83067C998.525 7.31047 997.96 8.38695 997.258 9.36421C991.138 17.8777 984.875 26.2913 978.884 34.8944C970.53 46.8911 959.319 52.6426 944.57 52.5904C889.239 52.3943 833.908 52.5717 778.577 52.3986C774.135 52.3847 771.9 53.6914 769.833 57.639C750.721 94.1306 731.316 130.468 712.168 166.941C710.451 170.212 708.603 171.308 704.942 171.265C686.945 171.055 668.944 171.169 650.945 171.169C649.317 171.169 647.688 171.169 645.368 171.169C646.582 168.748 647.457 166.846 648.464 165.018C673.388 119.751 698.32 74.4881 723.267 29.234C727.469 21.6114 733.469 15.7372 741.292 11.1828Z" fill="#060808"/>
<path d="M254.04 107.836C249.932 107.836 246.316 107.836 241.656 107.836C247.909 99.884 253.574 92.6035 259.325 85.3903C263.147 80.5949 266.22 74.128 271.23 71.6594C276.072 69.2732 282.966 71.007 288.959 71.0058C344.445 70.9943 399.931 70.999 455.416 70.999C457.242 70.999 459.068 70.999 459.907 70.999C454.85 76.1173 448.895 81.2453 444.07 87.2778C439.067 93.5329 437.539 101.337 437.876 109.729C436.248 109.827 434.809 109.987 433.369 109.99C420.539 110.009 407.707 110.139 394.881 109.905C391.616 109.846 389.828 110.977 388.058 113.54C363.097 149.673 337.939 185.671 313.14 221.915C309.961 226.56 306.84 228.421 301.183 228.312C281.696 227.936 262.196 228.168 242.701 228.168C241.122 228.168 239.542 228.168 236.93 228.168C266.392 187.739 295.218 148.184 324.622 107.836C300.657 107.836 277.594 107.836 254.04 107.836Z" fill="#050707"/>
<path d="M976.416 186.414C987.047 192.564 991.294 202.25 988.1 212.524C984.919 222.759 975.358 228.834 963.699 228.028C953.303 227.309 945.044 219.508 943.304 208.764C941.044 194.804 954.774 181.931 969.383 184.39C971.657 184.773 973.857 185.595 976.416 186.414ZM975.265 222.073C982.78 217.133 985.811 209.966 983.931 201.576C982.391 194.704 976.101 189.029 968.951 188.062C960.827 186.963 953.492 190.689 949.83 197.772C946.504 204.209 947.524 212.863 952.251 218.298C957.553 224.394 965.646 225.907 975.265 222.073Z" fill="#151717"/>
<path d="M243.247 59.5161C244.939 56.3074 247.177 53.2275 249.051 49.9399C253.106 42.8275 258.892 39.6992 267.142 41.062C269.88 41.5144 272.756 41.1334 277.15 41.1334C271.777 47.5163 267.538 53.5753 262.183 58.3942C260.132 60.2401 255.536 59.3489 252.091 59.5269C249.277 59.6722 246.449 59.5527 243.247 59.5161Z" fill="#111313"/>
<path d="M297.53 41.0179C303.502 41.0179 309.473 41.0179 316.919 41.0179C311.659 47.3737 307.312 53.0933 302.385 58.2576C301.116 59.587 298.026 59.4119 295.756 59.5021C291.322 59.6781 286.876 59.5537 280.756 59.5537C286.606 52.8895 291.537 47.2712 296.858 41.4954C297.247 41.338 297.53 41.0179 297.53 41.0179Z" fill="#101212"/>
<path d="M311.93 23.3598C315.355 19.0699 318.876 14.8523 322.173 10.4665C324.656 7.16388 327.536 5.40391 331.884 5.74542C336.459 6.10474 341.085 5.82589 347.276 5.82589C341.533 12.362 336.674 17.8921 331.621 23.6976C331.426 23.973 331.478 23.917 331.478 23.917C325.266 23.9246 319.054 23.9323 312.457 23.7137C312.071 23.4875 311.93 23.3598 311.93 23.3598Z" fill="#080A0A"/>
<path d="M354.889 19.9106C355.422 19.2355 355.748 18.8587 356.057 18.4691C367.232 4.40126 367.232 4.40108 386.63 6.22153C382.102 11.7688 378.031 17.0757 373.556 22.0176C372.418 23.2754 370.021 23.8277 368.164 23.9187C363.038 24.1699 357.892 24.0056 352.076 24.0056C353.124 22.4716 353.898 21.3372 354.889 19.9106Z" fill="#080A0A"/>
<path d="M290.388 24.0832C284.587 24.0832 278.787 24.0832 271.886 24.0832C276.687 18.1428 280.805 12.8356 285.205 7.77332C286.155 6.68089 288.1 5.99937 289.62 5.93894C295.06 5.72254 300.514 5.85415 307.233 5.85415C302.362 11.8474 298.148 17.0322 293.492 22.546C292.163 23.2777 291.275 23.6804 290.388 24.0832Z" fill="#090B0B"/>
<path d="M290.236 24.4003C291.275 23.6804 292.163 23.2777 293.35 22.8586C299.444 22.9392 305.238 23.0362 311.481 23.2465C311.93 23.3598 312.071 23.4875 312.008 23.5584C307.258 29.2168 302.571 34.8042 297.707 40.7048C297.53 41.0179 297.247 41.338 297.158 41.2692C290.783 41.2005 284.497 41.2005 276.813 41.2005C281.71 35.1189 285.897 29.9181 290.236 24.4003Z" fill="#EE2930"/>
<path d="M331.317 24.2397C331.477 23.917 331.426 23.973 331.388 23.9782C337.77 23.9833 344.19 23.9833 351.694 23.9833C346.931 30.0083 342.878 35.3695 338.515 40.4651C337.601 41.5328 335.559 42.0345 334.012 42.0887C328.559 42.2799 323.095 42.1631 316.236 42.1631C321.67 35.7539 326.414 30.1581 331.317 24.2397Z" fill="#EE292F"/>
<path d="M974.931 222.274C965.646 225.907 957.553 224.394 952.251 218.298C947.524 212.863 946.504 204.209 949.83 197.772C953.492 190.689 960.827 186.963 968.951 188.062C976.101 189.029 982.391 194.704 983.931 201.576C985.811 209.966 982.78 217.133 974.931 222.274ZM974.397 205.982C978.801 199.421 976.457 193.978 968.854 193.449C965.133 193.19 961.38 193.404 957.557 193.404C957.557 202.338 957.557 210.451 957.557 218.798C958.664 218.856 960.414 219.064 960.441 218.931C961.146 215.376 961.673 211.786 962.403 207.102C964.411 208.43 966.29 209.217 967.504 210.592C969.017 212.304 969.737 214.719 971.258 216.421C972.49 217.799 974.4 218.571 976.009 219.613C976.299 219.209 976.589 218.805 976.88 218.401C974.71 215.087 972.541 211.774 970.25 208.275C971.451 207.628 972.592 207.012 974.397 205.982Z" fill="#FAFAFA"/>
<path d="M974.066 206.189C972.592 207.012 971.451 207.628 970.25 208.275C972.541 211.774 974.71 215.087 976.88 218.401C976.589 218.805 976.299 219.209 976.009 219.613C974.4 218.571 972.49 217.799 971.258 216.421C969.737 214.719 969.017 212.304 967.504 210.592C966.29 209.217 964.411 208.43 962.403 207.102C961.674 211.786 961.146 215.376 960.441 218.931C960.414 219.064 958.664 218.856 957.557 218.798C957.557 210.451 957.557 202.338 957.557 193.404C961.38 193.404 965.133 193.19 968.854 193.449C976.457 193.978 978.801 199.421 974.066 206.189ZM961.723 203.522C964.258 203.732 966.842 204.308 969.306 203.981C970.369 203.84 972.049 201.706 971.901 200.705C971.701 199.347 970.206 197.468 968.925 197.138C966.661 196.556 964.14 196.975 961.599 196.975C961.599 199.236 961.599 200.887 961.723 203.522Z" fill="#242626"/>
<path d="M961.661 203.03C961.599 200.887 961.599 199.236 961.599 196.975C964.14 196.975 966.661 196.556 968.925 197.138C970.206 197.468 971.701 199.347 971.901 200.705C972.049 201.706 970.369 203.84 969.306 203.981C966.842 204.308 964.258 203.732 961.661 203.03Z" fill="#EFEFEF"/>
</svg>
