<svg width="1080" height="420" viewBox="0 0 1080 420" fill="none" xmlns="http://www.w3.org/2000/svg">
<path d="M439.016 85.9992C523.265 85.9992 607.016 85.9992 691.566 85.9992C688.431 91.9524 685.694 97.2083 682.906 102.437C666.942 132.374 650.89 162.264 635.039 192.261C629.691 202.381 621.944 207.512 610.211 207.263C592.389 206.886 574.553 207.165 556.007 207.165C556.836 208.576 557.348 209.675 558.059 210.623C570.251 226.876 582.559 243.044 594.595 259.411C596.744 262.334 598.94 263.234 602.429 263.231C697.423 263.141 792.416 263.159 887.409 263.159C900.242 263.159 913.074 263.159 925.906 263.159C927.497 263.159 929.086 263.159 930.965 263.159C930.675 264.157 930.662 264.681 930.404 265.018C922.528 275.347 914.768 285.769 906.69 295.937C899.597 304.865 889.886 308.942 878.684 308.95C771.192 309.029 663.7 309.014 556.207 308.881C554.309 308.879 551.756 307.572 550.613 306.046C524.364 270.986 498.254 235.821 472.157 200.648C466.535 193.07 466.176 184.848 470.373 176.649C474.441 168.705 481.292 164.834 490.285 164.837C520.283 164.848 550.281 164.789 580.278 164.903C583.66 164.915 585.614 164.142 587.145 160.812C591.507 151.325 596.349 142.059 601.357 131.991C527.438 131.991 454.144 131.991 379.653 131.991C384.038 126.005 387.718 120.947 391.435 115.918C395.592 110.294 399.549 104.502 404.008 99.1279C412.974 88.3216 425.028 85.1585 439.016 85.9992Z" fill="#EE262D"/>
<path d="M726.085 113.053C735.542 94.4246 750.466 85.8928 770.972 85.9356C846.953 86.094 922.935 85.9987 998.917 85.9987C1000.69 85.9987 1002.47 85.9987 1005.41 85.9987C996.133 98.4795 987.826 110.473 978.631 121.743C972.099 129.748 962.795 132.867 952.418 132.859C895.598 132.812 838.779 132.874 781.959 132.746C778.448 132.738 776.725 133.909 775.154 136.904C755.793 173.818 736.264 210.644 716.922 247.567C715.167 250.916 713.253 252.166 709.349 252.116C689.7 251.866 670.045 252.001 649.582 252.001C675.201 205.494 700.57 159.443 726.085 113.053Z" fill="white"/>
<path d="M356 151.484C394.902 151.484 433.303 151.484 473.149 151.484C457.377 160.545 448.53 172.503 448.634 190.516C446.679 190.516 444.902 190.516 443.124 190.516C430.791 190.516 418.457 190.622 406.126 190.446C402.807 190.398 400.741 191.327 398.782 194.169C373.186 231.292 347.424 268.301 321.793 305.401C320.024 307.961 318.266 309.125 314.974 309.098C292.811 308.918 270.645 309.004 247.347 309.004C276.774 268.613 305.768 228.817 335.184 188.441C307.5 188.441 280.462 188.441 252.787 188.441C253.485 187.07 253.765 186.191 254.301 185.514C262.458 175.194 270.533 164.802 278.946 154.693C280.366 152.987 283.27 151.641 285.503 151.62C308.834 151.4 332.167 151.484 356 151.484Z" fill="white"/>
<path d="M237.879 74.81C226.942 88.5712 216.153 102.454 204.982 116.022C201.476 120.28 196.945 123.694 192.935 127.805C192.987 128.115 193.099 128.158 193.099 128.158C180.191 128.054 167.283 127.947 154.374 127.848C151.919 127.829 149.462 127.845 145.46 127.845C159.433 110.5 172.676 94.0624 186.284 77.0728C188.515 75.7235 190.38 74.9263 192.244 74.129C207.198 74.1391 222.152 74.1492 237.61 74.4277C238.116 74.6961 237.879 74.81 237.879 74.81Z" fill="#EE272E"/>
<path d="M192.999 128.174C208.625 128.232 224.238 128.232 240.25 128.232C239.711 129.171 239.295 130.154 238.659 130.966C227.479 145.244 216.203 159.449 205.106 173.791C200.805 179.35 195.505 182.034 188.399 181.905C175.655 181.675 162.903 181.84 148.978 181.84C152.566 177.255 155.482 173.531 158.396 169.806C167.313 158.404 176.133 146.925 185.217 135.659C187.351 133.012 190.375 131.084 193.044 128.492C193.099 128.158 192.987 128.115 192.999 128.174Z" fill="white"/>
<path d="M136.61 139.616C127.853 150.766 119.184 161.535 110.858 172.563C105.949 179.064 100.018 182.251 91.6756 181.953C79.3956 181.515 67.0885 181.84 53.7936 181.84C57.25 177.332 60.194 173.426 63.2072 169.574C71.8249 158.557 80.6399 147.69 89.0392 136.51C93.7458 130.245 99.3101 127.337 107.344 127.686C119.777 128.226 132.251 127.828 145.714 127.828C142.407 132.121 139.624 135.733 136.61 139.616Z" fill="white"/>
<path d="M237.849 75.2783C237.879 74.8099 238.116 74.6961 238.058 74.5783C248.952 60.659 260.133 47.03 270.762 32.984C276.166 25.8435 282.45 22.417 291.565 22.8594C303.31 23.4294 315.103 22.9982 327.909 22.9982C326.736 24.9115 326.128 26.159 325.292 27.2289C314.541 40.9905 303.681 54.6678 293.018 68.497C288.391 74.4973 282.73 77.3661 275.007 77.0984C264.032 76.7179 253.034 77.0467 242.047 76.9462C240.634 76.9333 239.228 76.165 237.849 75.2783Z" fill="white"/>
<path d="M300.011 76.9984C310.818 76.9984 321.128 76.9984 332.122 76.9984C331.082 78.578 330.397 79.7947 329.546 80.8822C318.884 94.5193 308.086 108.052 297.566 121.798C292.635 128.241 286.779 131.481 278.388 131.133C266.114 130.623 253.802 131.002 240.543 131.002C244.195 126.278 247.368 122.136 250.581 118.024C258.78 107.532 267.257 97.2436 275.114 86.5011C280.211 79.5317 286.282 75.8134 295.02 76.9708C296.493 77.1659 298.014 76.9984 300.011 76.9984Z" fill="#EE262D"/>
<path d="M192.544 73.8847C190.38 74.9263 188.515 75.7236 186.409 76.7518C171.594 76.9828 157.019 76.9828 141.585 76.9828C151.477 64.3271 160.93 52.3889 170.214 40.3211C185.483 20.4739 184.842 23.1239 206.023 23.0062C214.931 22.9566 223.841 22.9979 233.688 22.9979C223.909 35.4838 214.793 47.2703 205.501 58.917C201.468 63.9729 197.074 68.7413 192.544 73.8847Z" fill="white"/>
<path d="M342.103 77.002C338.956 77.002 336.292 77.002 333.069 77.002C333.91 75.6692 334.472 74.579 335.215 73.631C345.689 60.2671 356.223 46.9502 366.665 33.5623C372.244 26.411 379.14 22.5799 388.533 22.9014C400.267 23.303 412.026 22.9979 424.728 22.9979C415.056 35.3619 405.984 46.9724 396.895 58.569C394.019 62.2371 391.147 65.9093 388.184 69.5061C383.894 74.7133 378.395 77.1642 371.573 77.0449C361.913 76.8758 352.249 77.002 342.103 77.002Z" fill="white"/>
<path d="M843.644 33.1446C853.389 33.1398 862.69 33.1398 872.016 33.1398C871.326 41.4058 871.157 41.572 863.759 41.5718C859.097 41.5717 854.43 41.7052 849.776 41.524C846.858 41.4104 845.365 42.3724 845.567 45.901C852.591 45.901 859.642 45.901 867.21 45.901C866.227 48.9727 865.435 51.4437 864.57 54.1441C858.037 54.1441 851.719 53.9806 845.421 54.2638C843.926 54.3311 842.498 55.8951 841.039 56.7706C841.261 57.3262 841.483 57.8818 841.704 58.4374C849.117 58.4374 856.529 58.4374 863.982 58.4374C863.176 66.8509 863.162 66.8641 855.606 66.8643C847.655 66.8645 839.704 66.8643 831.228 66.8643C834.697 55.7367 837.981 45.1281 841.365 34.5517C841.558 33.95 842.571 33.6108 843.644 33.1446Z" fill="white"/>
<path d="M979.264 38.3994C977.7 39.7122 976.303 41.3633 974.819 41.4468C969.177 41.7641 963.503 41.6877 957.848 41.5288C954.849 41.4446 953.436 42.4836 953.864 45.9223C960.752 45.9223 967.704 45.9223 975.337 45.9223C974.41 48.9049 973.646 51.3651 972.915 53.7206C965.265 54.1274 957.873 54.4862 950.494 55.0304C950.178 55.0537 949.989 56.7915 949.545 58.4738C957.406 58.4738 964.931 58.4738 972.591 58.4738C970.627 66.8659 970.627 66.8659 963.075 66.8658C955.432 66.8658 947.789 66.8658 939.406 66.8658C943.012 55.3378 946.462 44.3094 949.915 33.2706C960.271 33.2706 970.231 33.2706 980.705 33.2706C980.229 34.9889 979.81 36.5033 979.264 38.3994Z" fill="white"/>
<path d="M992.656 51.4399C992.117 50.1973 991.754 49.2966 991.161 47.8247C996.375 47.8247 1001.15 47.665 1005.91 47.8718C1010.24 48.06 1011.42 45.908 1011.07 41.5929C1004.66 41.5929 998.369 41.4403 992.101 41.7427C991.054 41.7932 989.644 43.6582 989.185 44.9608C987.31 50.2806 985.367 55.626 984.164 61.1186C983.027 66.3112 980.567 68.2005 975.211 66.3337C978.42 56.1416 981.579 45.8439 985 35.6339C985.367 34.5393 987.24 33.2763 988.445 33.2446C996.426 33.0347 1004.42 33.1218 1012.4 33.1494C1016.95 33.1651 1019 35.6005 1019.04 40.044C1019.11 48.1357 1013.37 54.9292 1004.75 56.3915C1006.15 59.7457 1007.52 63.0167 1008.91 66.3438C1000.06 67.675 1000.06 67.6756 996.537 59.9455C995.298 57.226 994.067 54.5031 992.656 51.4399Z" fill="white"/>
<path d="M591.845 61.2527C589.838 56.8358 587.987 52.767 585.745 47.8395C591.036 47.8395 595.753 47.666 600.45 47.891C604.678 48.0936 606.149 46.1148 605.897 41.5884C599.561 41.5884 593.262 41.4057 586.992 41.7551C585.849 41.8188 584.33 43.8813 583.833 45.3153C581.388 52.3677 579.231 59.5193 576.987 66.5864C574.55 66.5864 572.446 66.5864 569.869 66.5864C573.407 55.3019 576.829 44.3862 580.344 33.1749C589.66 33.1749 598.81 33.0357 607.953 33.2353C612.332 33.3309 613.909 36.3877 613.811 40.3997C613.617 48.3334 607.916 54.8594 599.495 56.4166C600.865 59.7799 602.203 63.0648 603.666 66.6571C598.64 66.8613 593.474 68.5203 591.845 61.2527Z" fill="#EE272F"/>
<path d="M762.99 41.5678C748.085 41.9133 751.291 38.988 746.594 53.5371C746.155 54.8971 745.957 56.3349 745.648 57.7318C756.025 59.9274 762.285 58.7709 763.246 54.3848C760.608 54.2215 758.013 54.0609 755.398 53.899C756.769 45.9913 756.769 45.9912 764.153 45.9909C766.97 45.9907 769.787 45.9909 773.628 45.9909C771.42 52.8955 769.471 59.3008 767.221 65.5986C766.963 66.3204 765.032 66.7665 763.866 66.7879C757.707 66.9008 751.542 66.9343 745.383 66.8041C740.17 66.6939 737.03 63.382 738.186 58.3564C739.557 52.3989 741.5 46.499 743.901 40.8759C745.831 36.3566 749.911 33.5293 754.892 33.2892C762.179 32.9379 769.495 33.1988 776.814 33.1988C776.33 41.0458 775.824 41.5662 768.975 41.568C767.143 41.5684 765.311 41.568 762.99 41.5678Z" fill="#EE262E"/>
<path d="M613.932 56.8238C615.436 51.9983 616.677 47.5032 618.264 43.1334C620.775 36.2145 625.299 33.1821 632.639 33.1592C637.299 33.1447 641.96 33.1027 646.62 33.172C652.269 33.256 655.119 35.9389 653.88 41.2283C651.99 49.2984 649.506 57.2685 646.589 65.0234C646.05 66.4543 642.266 66.664 639.019 67.7624C640.291 63.2719 641.177 60.1441 642.265 56.3039C636.379 56.3039 630.887 56.3039 625.267 56.3039C627.087 48.03 627.087 48.03 634.396 48.03C636.393 48.03 638.418 47.8197 640.383 48.0725C644.819 48.6433 646.468 46.6128 646.097 41.6669C639.935 41.6669 633.704 41.535 627.491 41.8107C626.572 41.8515 625.354 43.6861 624.931 44.9166C623.04 50.4134 621.084 55.9198 619.742 61.5632C618.621 66.2804 616.281 67.9621 611.056 66.347C611.968 63.3344 612.896 60.2724 613.932 56.8238Z" fill="#EE272E"/>
<path d="M660.057 346.279C657.815 347.233 655.853 347.933 653.603 348.737C655.051 351.991 656.51 355.269 658.013 358.645C649.322 359.488 649.332 359.483 645.854 352.096C644.037 348.237 642.179 344.397 640.008 339.855C645.128 339.855 649.412 339.652 653.667 339.912C657.889 340.171 659.457 338.372 658.994 333.649C652.891 333.649 646.796 333.493 640.726 333.811C639.779 333.86 638.508 335.94 638.132 337.289C636.17 344.312 634.45 351.403 632.584 358.709C630.4 358.709 628.316 358.709 625.682 358.709C628.569 347.452 631.394 336.437 634.285 325.165C643.051 325.165 651.524 325.035 659.991 325.217C664.607 325.316 667.549 328.532 666.353 333.308C665.236 337.769 662.411 341.804 660.057 346.279Z" fill="white"/>
<path d="M594.764 352.842C594.132 358.104 591.826 360.354 586.3 358.405C588.509 350.171 590.414 341.79 593.058 333.649C594.918 327.925 599.227 324.81 605.646 325.111C609.963 325.313 614.297 325.088 618.622 325.167C624.58 325.276 627.472 328.303 626.323 333.977C624.775 341.617 622.939 349.232 620.566 356.646C620.075 358.179 616.683 358.782 614.628 359.814C614.292 359.432 613.955 359.05 613.618 358.667C614.236 355.524 614.853 352.38 615.605 348.551C610.119 348.551 604.924 348.551 599.248 348.551C600.043 345.462 600.651 343.102 601.416 340.133C605.291 340.133 609.223 340.139 613.154 340.132C618.613 340.122 618.613 340.118 619.097 333.651C613.303 333.651 607.526 333.487 601.774 333.802C600.741 333.859 599.321 335.741 598.928 337.038C597.389 342.118 596.189 347.301 594.764 352.842Z" fill="white"/>
<path d="M925.753 342.655C922.642 345.115 919.74 347.268 916.407 349.74C917.41 351.929 918.898 355.178 920.459 358.587C911.764 359.516 911.752 359.522 908.375 352.399C906.478 348.398 904.63 344.374 902.524 339.854C907.352 339.854 911.516 339.598 915.633 339.925C919.923 340.266 921.866 338.657 921.652 334.001C915.059 334.001 908.491 334.001 901.427 334.001C899.307 342.066 897.127 350.358 894.923 358.74C892.625 358.74 890.521 358.74 888.097 358.74C890.801 348.163 893.328 337.87 896.187 327.669C896.499 326.556 898.702 325.314 900.068 325.265C906.881 325.02 913.707 325.114 920.528 325.165C927.261 325.216 929.996 328.351 928.722 334.933C928.229 337.487 926.906 339.88 925.753 342.655Z" fill="white"/>
<path d="M501.66 61.6019C498.091 65.605 493.975 67.1807 488.956 66.9129C484.638 66.6825 480.296 66.9384 475.968 66.8455C470.314 66.7241 467.092 63.0524 468.418 57.7434C469.744 52.4342 471.251 47.092 473.439 42.0968C475.949 36.3657 480.585 33.0453 487.199 33.1274C492.028 33.1873 496.863 33.0077 501.687 33.1835C506.906 33.3738 510.114 36.7229 508.817 41.7105C507.078 48.3968 504.258 54.8022 501.66 61.6019ZM486.463 58.5336C488.453 58.5337 490.481 58.7709 492.422 58.4612C494.062 58.1997 496.57 57.703 497.015 56.6203C498.915 51.9961 500.193 47.116 501.932 41.5845C494.871 41.5845 488.939 41.5088 483.013 41.6602C482.042 41.685 480.528 42.5027 480.234 43.3076C478.504 48.0489 477.061 52.8949 475.256 58.5335C479.324 58.5335 482.42 58.5335 486.463 58.5336Z" fill="white"/>
<path d="M881.388 325.178C887.875 326.826 889.821 329.753 888.492 335.686C887.515 340.047 886.421 344.396 885.09 348.661C882.88 355.746 878.458 358.916 871.109 358.981C866.957 359.018 862.803 359.072 858.654 358.959C853.005 358.805 850.089 356.014 850.937 350.455C851.831 344.601 853.24 338.697 855.409 333.204C857.49 327.936 861.974 325.032 867.997 325.141C872.314 325.22 876.633 325.159 881.388 325.178ZM878.092 333.596C873.954 333.596 869.808 333.446 865.683 333.677C864.222 333.759 861.872 334.447 861.54 335.413C859.908 340.16 858.819 345.093 857.537 349.964C874.455 353.683 878.217 351.617 881.141 337.642C881.242 337.157 881.658 336.479 881.473 336.238C880.743 335.285 879.833 334.471 878.092 333.596Z" fill="white"/>
<path d="M810.985 351.749C812.36 345.542 813.262 339.583 815.254 334.014C817.23 328.488 821.577 325.183 827.825 325.164C832.309 325.15 836.799 325.028 841.276 325.203C846.739 325.418 849.806 328.591 848.891 333.948C847.892 339.791 846.46 345.677 844.268 351.166C842.247 356.228 837.968 359.14 832.097 359.005C827.781 358.907 823.461 358.959 819.143 358.991C814.47 359.026 811.551 357.019 810.985 351.749ZM832.488 333.593C830.004 333.593 827.489 333.364 825.047 333.689C823.785 333.857 821.914 334.769 821.591 335.759C820.085 340.383 819.022 345.151 817.58 350.721C824.246 350.721 829.992 350.836 835.725 350.614C836.732 350.575 838.259 349.303 838.565 348.3C839.956 343.754 840.995 339.099 842.386 333.592C838.98 333.592 836.221 333.592 832.488 333.593Z" fill="white"/>
<path d="M512.175 47.104C513.788 42.35 514.08 36.2036 517.147 34.0992C520.47 31.8183 526.378 33.2531 531.16 33.1626C535.148 33.0872 539.139 33.1767 543.128 33.143C547.703 33.1045 549.79 35.5758 549.962 39.9095C550.305 48.5381 543.213 55.9939 534.689 56.0161C530.367 56.0274 526.013 56.3484 521.733 55.9246C517.585 55.5139 515.507 56.9579 515.018 61.0136C514.392 66.2089 511.68 68.2533 506.22 66.3061C508.156 60.0857 510.116 53.7888 512.175 47.104ZM524.098 41.4329C519.331 41.1166 520.431 45.0375 519.266 47.9278C525.27 47.9278 530.91 47.699 536.521 47.9974C541.343 48.2537 542.429 45.897 542.122 41.4323C536.226 41.4323 530.605 41.4323 524.098 41.4329Z" fill="white"/>
<path d="M787.918 358.99C782.787 358.99 778.141 358.99 772.735 358.99C774.63 351.601 776.41 344.662 778.21 337.641C780.55 337.641 782.504 337.641 784.969 337.641C783.937 342.005 782.972 346.086 781.878 350.712C786.811 350.712 791.26 350.887 795.677 350.592C796.822 350.516 798.496 349.17 798.851 348.063C800.257 343.667 801.238 339.135 802.577 333.864C794.604 333.864 787.244 333.864 779.248 333.864C780.065 330.561 780.687 328.049 781.39 325.212C788.508 325.212 795.483 324.997 802.437 325.29C806.925 325.479 809.889 328.337 809.098 332.854C807.961 339.347 806.555 345.949 804.054 352.004C801.31 358.649 794.934 359.558 787.918 358.99Z" fill="white"/>
<path d="M893.709 53.1712C895.774 48.5743 897.974 43.798 899.298 38.79C900.535 34.1094 902.62 31.8721 908.232 33.6653C904.807 44.6233 901.374 55.6049 898.026 66.3157C892.77 68.1184 890.03 66.3114 888.293 61.487C886.445 56.3518 883.844 51.4877 881 45.2531C878.429 53.1215 876.211 59.9085 874.009 66.6454C871.594 66.6454 869.471 66.6454 866.913 66.6454C870.257 56.051 873.423 45.7516 876.855 35.542C877.216 34.4696 879.243 33.1758 880.337 33.3083C882.145 33.5273 884.664 34.3708 885.406 35.7476C888.399 41.2962 890.826 47.1498 893.709 53.1712Z" fill="white"/>
<path d="M738.395 41.5276C736.126 48.7281 734.055 55.5747 731.85 62.3785C731.19 64.4175 731.259 66.9932 727.726 66.9572C724.667 66.926 722.949 66.1801 721.735 63.1627C719.394 57.3458 716.55 51.7318 713.532 45.2062C711.051 52.9492 708.883 59.7152 706.675 66.6074C704.414 66.6074 702.31 66.6074 699.583 66.6074C702.973 55.7823 706.158 45.3189 709.649 34.9586C709.967 34.0169 712.351 33.1084 713.596 33.3068C715.225 33.5664 717.382 34.5731 718.082 35.9048C721.086 41.6237 723.639 47.5795 726.969 54.7732C728.935 48.5979 730.843 43.7047 732.004 38.6402C733.141 33.6805 735.628 31.9797 740.747 33.6578C740.014 36.1476 739.277 38.6525 738.395 41.5276Z" fill="#EE282F"/>
<path d="M749.067 341.449C747.54 347.423 746.086 353.017 744.597 358.741C742.312 358.741 740.224 358.741 737.719 358.741C740.458 348.149 743.05 337.871 745.86 327.653C746.141 326.633 747.85 325.204 748.723 325.316C750.558 325.553 753.144 326.201 753.894 327.538C757.201 333.427 759.964 339.621 763.414 346.712C765.497 338.876 767.289 332.134 769.093 325.351C771.368 325.351 773.316 325.351 775.852 325.351C773.137 336.044 770.57 346.436 767.761 356.762C767.501 357.718 765.594 358.984 764.652 358.835C762.834 358.548 760.32 357.816 759.569 356.454C756.3 350.53 753.561 344.314 750.419 337.763C749.853 339.226 749.496 340.147 749.067 341.449Z" fill="white"/>
<path d="M799.165 52.0812C800.094 49.1665 800.87 46.6219 801.764 44.1195C804.436 36.6388 809.305 33.168 817.15 33.1377C823.617 33.1127 830.084 33.1326 836.607 33.1326C835.151 41.5825 835.151 41.5826 827.522 41.5816C822.86 41.5811 818.161 41.2442 813.554 41.7504C811.789 41.9443 809.48 43.7236 808.738 45.3737C806.997 49.2464 806.052 53.477 804.564 58.2761C812.982 58.2761 820.716 58.2761 828.512 58.2761C827.433 66.8718 827.433 66.8718 819.66 66.8713C815.331 66.8711 811.002 66.8854 806.673 66.867C798.863 66.8338 796.13 63.3363 798.03 55.7978C798.313 54.6732 798.717 53.5789 799.165 52.0812Z" fill="white"/>
<path d="M688.331 41.5639C682.073 41.5677 676.241 41.396 670.43 41.6736C668.733 41.7547 666.141 42.7073 665.605 43.963C663.743 48.3245 662.605 52.9946 660.971 58.2582C669.43 58.2582 677.011 58.2582 684.597 58.2582C684.403 66.131 683.691 66.8428 676.505 66.8426C671.514 66.8424 666.52 66.9181 661.53 66.8148C655.902 66.6982 652.856 63.5825 654.076 58.1916C655.423 52.2386 656.94 46.0234 659.976 40.8594C661.977 37.4562 666.548 34.1617 670.401 33.5516C677.676 32.3998 685.262 33.219 694.556 33.219C692.138 36.7031 690.452 39.1314 688.331 41.5639Z" fill="#EE262E"/>
<path d="M565.455 331.545C564.901 333.695 564.488 335.468 563.752 338.622C566.088 337.603 567.868 337.221 569.121 336.195C571.554 334.203 573.926 332.04 575.899 329.604C579.3 325.406 583.455 324.2 588.627 325.497C583.158 330.948 577.715 336.371 572.138 341.93C575.367 347.597 578.363 352.855 581.416 358.213C573.406 359.961 573.295 359.769 569.383 353.421C567.759 350.785 565.403 348.6 563.38 346.21C562.112 349.016 560.198 351.716 559.719 354.651C558.862 359.909 555.664 359.19 551.611 358.689C554.507 347.391 557.328 336.387 560.162 325.33C562.5 325.33 564.451 325.33 566.867 325.33C566.407 327.443 566.001 329.305 565.455 331.545Z" fill="white"/>
<path d="M445.046 53.9247C446.302 49.7616 447.472 45.9901 448.813 41.6657C444.443 41.6657 440.671 41.6657 436.881 41.6657C437.46 33.3095 437.654 33.1246 445.442 33.1246C453.906 33.1247 462.371 33.1246 470.844 33.1246C470.516 41.0797 469.973 42.0443 462.787 41.4459C457.326 40.9912 455.097 43.0307 454.031 48.0563C453.072 52.5787 450.943 56.8626 450.085 61.3946C449.098 66.6109 446.319 67.7958 441.194 66.4156C442.451 62.3772 443.706 58.3468 445.046 53.9247Z" fill="white"/>
<path d="M926.012 33.1255C932.479 33.1255 938.449 33.1255 944.425 33.1255C944.17 40.9633 943.516 41.879 936.043 41.4873C931.321 41.2398 928.811 42.459 927.836 47.4212C926.884 52.2679 924.552 56.8409 923.569 61.6849C922.559 66.6652 919.954 67.8193 914.846 66.3499C917.306 58.338 919.784 50.2638 922.419 41.6804C917.999 41.6804 914.223 41.6804 909.648 41.6804C910.659 38.5283 911.488 35.9446 912.393 33.1255C916.907 33.1255 921.211 33.1255 926.012 33.1255Z" fill="white"/>
<path d="M686.028 325.142C692.802 325.142 699.083 325.142 705.81 325.142C705.035 328.173 704.388 330.701 703.645 333.605C699.56 333.605 695.629 333.605 691.501 333.605C689.23 342.231 687.053 350.503 684.858 358.841C682.586 358.841 680.63 358.841 678.079 358.841C680.17 350.499 682.193 342.426 684.388 333.668C680.227 333.668 676.522 333.668 672.277 333.668C673.078 330.458 673.7 327.959 674.402 325.142C678.269 325.142 681.901 325.142 686.028 325.142Z" fill="white"/>
<path d="M704.805 34.0032C702.072 43.4422 698.973 52.4044 696.572 61.5495C695.326 66.2964 693.125 67.9229 687.792 66.3054C691.219 55.347 694.648 44.3852 698.198 33.0338C700.534 33.2371 702.632 33.4197 704.805 34.0032Z" fill="#EE2A31"/>
<path d="M735.188 347.341C734.141 351.418 733.198 355.096 732.243 358.823C729.961 358.823 728.011 358.823 725.404 358.823C728.29 347.5 731.097 336.489 733.936 325.352C736.161 325.352 738.107 325.352 740.806 325.352C738.929 332.703 737.111 339.822 735.188 347.341Z" fill="white"/>
</svg>
